<?xml version="1.0" encoding="UTF-8" ?>
<!DOCTYPE svg PUBLIC "-//W3C//DTD SVG 1.1//EN" "http://www.w3.org/Graphics/SVG/1.1/DTD/svg11.dtd">
<svg width="600pt" height="300pt" viewBox="0 0 800 600" version="1.1" xmlns="http://www.w3.org/2000/svg">
<path fill="#ffffff" d=" M 0.00 0.00 L 229.13 0.00 C 230.16 1.97 231.05 4.00 231.96 6.03 C 155.97 6.40 79.96 6.00 3.96 6.21 C 3.29 19.14 3.86 32.10 3.67 45.04 C 3.74 53.02 3.44 61.01 3.86 68.98 C 38.20 69.34 72.56 68.97 106.90 69.20 C 105.24 70.04 103.11 70.33 101.85 71.78 C 100.97 74.55 101.03 77.53 100.14 80.30 C 99.21 82.49 97.54 84.24 96.07 86.06 C 85.84 98.09 76.95 111.17 68.45 124.45 C 52.24 151.08 38.96 180.52 36.66 211.99 C 35.19 225.41 37.28 238.87 39.85 252.02 C 42.85 267.55 44.43 283.60 50.63 298.30 C 58.00 315.67 71.34 329.48 84.90 342.21 C 100.73 356.13 118.24 368.08 136.69 378.25 C 161.35 391.58 187.31 402.47 213.96 411.13 C 216.96 411.52 217.08 414.58 217.63 416.94 C 222.02 416.92 226.42 416.88 230.82 416.86 C 231.11 431.57 230.56 446.28 231.03 460.98 C 265.67 461.23 300.33 461.20 334.98 460.98 C 335.39 449.30 335.03 437.62 335.12 425.94 C 335.03 416.70 335.40 407.45 334.89 398.22 C 327.86 398.07 320.82 398.36 313.80 397.88 C 316.83 395.99 319.88 394.14 322.93 392.29 C 322.09 390.93 321.25 389.58 320.41 388.23 C 334.85 373.05 348.75 357.37 363.04 342.05 C 366.76 338.23 369.77 333.49 374.37 330.67 C 379.20 329.80 384.14 330.45 389.02 330.32 C 410.73 330.22 432.45 330.55 454.16 330.15 C 454.54 316.12 454.32 302.07 454.12 288.03 C 454.09 285.23 454.59 282.47 455.12 279.73 C 455.76 279.82 457.02 280.00 457.66 280.09 C 457.66 272.39 457.66 264.70 457.66 257.00 C 457.10 257.00 455.97 257.00 455.41 257.00 C 455.41 260.74 455.39 264.49 455.42 268.23 C 453.85 267.80 452.30 267.36 450.76 266.91 C 448.81 263.82 445.13 263.74 441.87 263.93 C 441.26 264.32 440.04 265.09 439.43 265.47 C 439.49 266.22 439.61 267.71 439.67 268.46 C 440.20 268.09 441.27 267.36 441.80 266.99 C 443.72 267.00 445.65 267.05 447.58 267.08 C 447.90 267.50 448.54 268.34 448.86 268.76 C 445.42 268.99 441.42 269.22 438.89 271.85 C 436.89 274.85 438.82 278.41 441.39 280.30 C 444.12 280.23 446.52 278.99 448.67 277.39 C 448.63 278.10 448.55 279.52 448.52 280.23 C 449.11 280.12 450.31 279.91 450.90 279.80 L 451.58 279.66 C 451.76 275.91 451.76 272.16 452.25 268.44 C 453.57 273.53 452.91 278.81 452.99 284.01 C 453.02 288.67 453.01 293.33 452.87 297.99 C 432.58 298.44 412.28 298.00 391.99 298.16 C 377.32 298.04 362.65 298.39 347.99 298.00 C 347.73 292.00 347.54 285.97 348.08 279.98 L 348.81 279.93 C 346.77 277.31 344.91 274.57 342.96 271.90 C 344.70 269.48 346.47 267.08 348.04 264.55 C 349.14 265.62 350.24 266.68 351.39 267.71 C 351.77 271.85 350.00 277.12 353.90 280.05 C 355.34 280.03 356.78 280.01 358.23 280.00 C 358.64 278.88 359.04 277.75 359.42 276.62 C 357.68 276.77 355.94 276.88 354.20 276.81 C 354.46 274.24 354.76 271.69 355.06 269.13 C 358.74 269.01 362.43 268.95 366.11 268.97 C 363.87 272.81 361.38 276.49 359.13 280.32 C 364.10 280.22 364.82 274.20 367.44 271.04 C 369.34 274.02 371.07 277.09 372.90 280.12 C 373.63 280.09 375.09 280.03 375.82 280.00 C 373.54 276.29 371.31 272.56 369.11 268.82 C 371.33 265.20 373.53 261.56 375.85 258.00 C 375.14 258.00 373.72 258.00 373.01 258.00 C 371.32 260.87 369.61 263.72 367.85 266.55 C 364.90 263.59 364.37 257.62 359.32 257.63 C 361.12 260.78 363.02 263.86 364.89 266.97 C 364.18 267.17 362.78 267.56 362.08 267.76 C 359.11 263.90 356.39 259.86 353.36 256.06 C 352.15 256.95 350.96 257.86 349.77 258.76 C 329.50 244.19 309.62 229.09 289.15 214.81 C 282.40 209.82 275.24 205.40 268.72 200.10 C 271.44 199.93 274.16 199.77 276.88 199.63 C 277.42 178.76 277.11 157.87 276.99 137.00 C 256.37 136.60 235.74 137.15 215.12 136.78 C 215.00 132.29 214.87 127.80 214.83 123.31 C 213.19 123.38 211.57 123.63 209.94 123.71 C 207.56 118.66 205.39 113.51 203.21 108.37 C 204.28 108.15 205.36 107.92 206.44 107.70 C 206.21 104.86 205.98 102.01 205.74 99.17 C 205.23 99.10 204.21 98.95 203.70 98.88 C 203.87 101.89 203.81 104.92 203.41 107.92 C 199.31 102.10 196.42 95.53 192.31 89.71 C 187.43 82.42 181.47 75.95 175.91 69.19 C 183.49 69.08 191.07 68.97 198.64 69.28 C 200.05 72.12 201.20 75.19 203.30 77.61 C 206.80 78.08 210.47 76.90 213.86 78.11 C 217.74 80.08 221.23 82.83 225.42 84.20 C 222.46 81.48 218.92 79.56 215.56 77.40 C 212.61 75.59 211.46 72.16 210.02 69.21 C 233.22 68.81 256.43 69.54 279.62 68.88 C 279.74 66.24 279.87 63.61 280.00 60.97 C 294.05 70.64 308.33 80.05 323.74 87.43 C 323.61 89.15 323.49 90.88 323.37 92.61 C 327.86 93.04 332.34 93.55 336.82 94.18 C 337.10 111.79 336.61 129.40 337.04 147.01 C 375.69 147.18 414.35 147.17 452.99 147.01 C 453.34 126.66 452.94 106.30 453.20 85.95 C 457.71 85.11 462.25 84.43 466.80 83.83 C 466.60 82.23 466.41 80.62 466.23 79.02 C 476.92 73.31 487.89 68.11 498.67 62.56 C 505.37 59.36 511.57 55.13 518.65 52.75 C 518.78 59.76 518.39 66.77 518.97 73.76 C 526.76 73.90 534.56 73.54 542.35 73.99 C 541.31 77.35 539.98 80.61 538.38 83.74 C 542.21 83.27 546.06 82.94 549.91 82.71 C 551.18 79.88 552.38 77.03 553.51 74.14 C 560.30 73.48 567.13 73.85 573.94 73.79 C 581.98 73.83 590.03 73.60 598.07 73.97 C 596.74 76.30 595.41 78.63 594.09 80.96 C 596.72 84.86 599.76 88.99 599.26 93.99 C 598.95 109.14 599.60 124.30 598.98 139.44 C 597.62 139.80 596.26 140.16 594.91 140.52 C 596.15 144.94 597.56 149.30 598.97 153.67 C 580.33 153.65 561.70 153.66 543.07 153.67 C 535.12 153.72 527.17 153.36 519.24 153.91 C 519.17 174.61 519.19 195.30 519.23 215.99 C 535.46 216.77 551.72 216.12 567.96 216.31 C 597.95 216.34 627.94 216.32 657.94 216.32 C 665.54 216.26 673.16 216.65 680.75 216.01 C 680.78 195.32 680.83 174.64 680.76 153.95 C 670.84 153.34 660.90 153.77 650.97 153.66 C 634.34 153.63 617.71 153.69 601.08 153.63 C 602.42 149.27 603.80 144.92 605.08 140.54 C 603.71 140.18 602.36 139.82 601.01 139.46 C 600.57 130.79 600.76 122.11 600.87 113.44 C 602.04 113.60 603.22 113.77 604.41 113.93 C 603.50 111.15 601.98 107.99 604.30 105.43 C 602.99 104.15 600.83 103.20 600.86 101.09 C 600.48 97.71 600.52 94.29 600.90 90.92 C 601.33 87.12 603.95 84.13 605.90 81.00 C 604.58 78.64 603.26 76.29 601.96 73.93 C 614.31 73.53 626.67 73.98 639.03 73.69 C 641.80 73.75 644.70 73.46 647.35 74.43 C 648.77 76.92 649.49 79.75 650.94 82.22 C 654.82 83.60 659.56 82.14 662.99 84.93 C 671.84 91.69 680.15 99.13 687.84 107.18 C 696.36 115.40 704.20 124.28 711.61 133.51 C 710.68 134.72 709.77 135.94 708.86 137.16 C 712.04 139.18 715.17 141.31 718.21 143.56 C 713.48 143.60 708.75 143.65 704.02 143.81 C 703.78 171.26 703.77 198.73 704.01 226.18 C 730.35 226.54 756.69 226.18 783.03 226.37 C 786.93 226.43 790.83 226.28 794.74 226.02 C 794.84 198.67 794.80 171.31 794.77 143.95 C 770.42 143.09 746.03 144.10 721.68 143.49 C 720.13 139.13 718.56 134.79 716.89 130.47 C 715.53 131.04 714.15 131.61 712.80 132.19 C 707.03 126.27 702.10 119.60 696.27 113.74 C 687.78 105.20 679.54 96.35 670.07 88.88 C 667.51 86.79 664.73 84.96 662.37 82.64 C 660.06 80.37 659.60 77.01 658.70 74.06 C 666.13 73.57 673.58 73.90 681.02 73.76 C 681.81 54.68 680.91 35.56 681.47 16.47 C 693.31 15.98 705.17 16.69 717.01 16.14 C 717.17 10.76 717.16 5.38 717.12 0.00 L 800.00 0.00 L 800.00 230.20 C 783.37 230.18 766.74 230.13 750.11 230.21 C 749.71 251.11 749.80 272.02 750.04 292.92 C 757.77 293.41 765.51 292.89 773.24 293.26 C 769.91 295.07 766.52 296.74 763.12 298.38 C 765.26 301.32 767.83 303.92 770.77 306.08 C 772.99 301.84 775.13 297.55 777.31 293.29 C 784.87 292.94 792.43 293.15 800.00 293.17 L 800.00 350.96 C 784.30 350.84 768.60 350.73 752.91 351.01 C 752.43 362.66 752.82 374.33 752.70 385.99 C 752.89 395.23 752.34 404.49 753.02 413.73 C 764.10 414.05 775.19 413.43 786.26 414.01 C 783.52 417.05 780.70 420.02 777.88 422.98 C 779.12 423.83 780.37 424.68 781.63 425.54 C 777.69 434.19 773.64 442.80 769.39 451.31 C 767.70 454.61 766.45 458.17 764.21 461.16 C 761.87 461.86 759.39 461.68 756.99 461.72 C 750.39 461.50 743.73 462.18 737.21 460.90 C 731.20 459.74 725.07 460.26 719.00 460.23 C 685.32 460.22 651.64 460.18 617.95 460.24 C 617.36 468.46 617.76 476.71 617.67 484.95 C 617.75 497.64 617.45 510.33 617.83 523.01 C 625.33 523.30 632.84 523.02 640.34 523.12 C 637.22 527.00 638.00 532.72 634.41 536.27 C 628.56 542.66 621.47 547.96 616.59 555.19 C 624.02 549.84 629.44 542.27 636.33 536.31 C 639.48 533.85 643.64 533.54 647.38 532.47 C 648.02 529.40 648.67 526.33 649.33 523.26 C 663.43 523.03 677.54 523.11 691.64 523.18 C 691.29 526.10 690.79 529.03 690.95 531.99 C 693.92 535.42 699.06 536.87 700.54 541.56 C 708.52 560.76 716.19 580.12 722.32 600.00 L 614.36 600.00 C 614.30 596.99 614.23 593.99 614.16 591.00 C 605.28 590.56 596.38 591.31 587.52 590.54 C 589.58 588.66 591.75 586.91 593.99 585.24 C 593.35 584.04 592.72 582.85 592.09 581.67 C 598.16 574.86 604.84 568.62 611.27 562.14 C 612.85 560.51 614.14 558.65 615.40 556.77 C 606.10 564.04 598.87 573.54 589.96 581.26 C 587.28 576.22 588.47 570.39 588.31 564.94 C 588.23 553.29 588.51 541.64 588.17 530.00 C 567.78 529.69 547.39 530.04 527.00 529.85 C 523.11 529.74 519.18 529.62 515.37 530.55 C 514.09 530.69 512.70 531.40 511.50 530.63 C 508.35 528.95 505.70 526.53 502.93 524.34 C 530.62 524.19 558.32 524.57 586.01 524.14 C 586.20 503.37 586.30 482.59 586.01 461.82 C 572.89 461.39 559.76 461.85 546.64 461.60 C 547.11 458.05 550.26 456.60 553.22 455.42 C 552.16 455.45 551.10 455.48 550.05 455.51 C 549.77 455.13 549.21 454.37 548.93 453.99 C 550.79 452.85 552.65 451.70 554.51 450.56 C 552.35 448.86 549.75 447.94 547.10 447.35 C 546.88 436.24 547.25 425.10 546.21 414.01 C 559.26 413.44 572.33 414.04 585.39 413.72 C 585.94 412.42 586.50 411.13 587.07 409.84 C 586.92 412.57 586.76 415.30 586.60 418.03 C 587.53 418.02 588.47 418.02 589.42 418.02 C 589.30 416.06 589.22 414.10 589.12 412.14 C 589.98 411.78 590.84 411.43 591.72 411.08 C 591.89 413.32 592.10 415.57 592.29 417.82 C 592.86 417.90 594.02 418.05 594.60 418.13 C 594.30 415.32 594.24 412.43 593.27 409.75 C 591.42 409.36 589.36 410.59 587.68 409.44 C 585.83 408.20 586.31 405.64 585.78 403.77 C 590.33 403.87 594.89 404.18 599.42 404.71 C 599.63 403.15 599.56 401.52 600.11 400.04 C 602.22 397.51 605.20 395.80 607.03 393.00 C 609.95 388.40 610.69 382.60 609.54 377.32 C 608.46 372.55 605.08 368.62 601.15 365.87 C 596.73 362.89 591.30 362.31 586.25 361.06 C 586.19 357.71 586.12 354.36 586.02 351.01 C 572.67 350.60 559.30 351.16 545.94 350.72 C 546.95 349.16 547.66 347.28 549.17 346.13 C 551.85 345.09 554.79 345.57 557.59 345.60 C 557.18 342.83 557.34 339.84 555.98 337.32 C 553.27 336.78 549.04 338.67 547.62 335.40 C 546.48 331.02 546.83 326.39 547.00 321.92 C 547.16 317.71 550.06 314.41 552.11 310.96 C 550.51 308.32 548.86 305.73 547.17 303.16 C 566.50 302.99 585.84 303.32 605.17 303.01 C 605.58 284.36 605.24 265.69 605.36 247.03 C 605.21 238.08 605.73 229.10 604.99 220.16 C 576.66 220.16 548.33 220.18 520.00 220.17 C 503.14 220.31 486.26 219.86 469.41 220.41 C 468.92 235.52 469.59 250.66 469.12 265.77 C 467.45 268.47 468.62 271.51 471.22 273.08 C 471.89 273.06 473.23 273.02 473.90 272.99 C 474.94 273.59 475.99 274.18 477.05 274.77 C 476.75 275.55 476.47 276.33 476.19 277.11 C 473.45 277.05 470.70 276.94 468.05 276.18 C 468.08 276.79 468.13 278.00 468.16 278.60 L 469.11 279.10 C 469.54 287.02 469.07 294.95 469.25 302.88 C 479.08 303.44 488.93 302.96 498.78 303.17 C 497.17 304.06 495.44 304.80 494.10 306.08 C 493.39 310.05 494.16 314.39 492.00 318.00 C 486.40 327.75 480.96 337.70 477.54 348.46 C 474.54 357.74 471.75 367.15 470.57 376.86 C 469.55 385.01 470.91 393.24 472.86 401.15 C 475.42 410.62 478.54 420.01 483.24 428.67 C 486.44 435.20 490.62 441.17 494.43 447.35 C 493.13 449.68 490.55 452.67 492.71 455.29 C 496.51 457.46 501.00 458.43 504.28 461.53 C 499.14 461.67 494.01 461.63 488.88 461.82 C 488.46 479.21 488.90 496.62 488.67 514.02 C 481.84 509.73 475.47 504.77 468.92 500.08 C 463.48 496.04 457.77 492.36 452.48 488.12 C 452.90 486.63 453.33 485.15 453.77 483.67 C 451.40 482.83 449.05 481.98 446.70 481.13 C 450.06 480.93 453.41 480.76 456.78 480.62 C 458.62 473.16 456.78 465.55 457.05 458.01 C 457.08 444.68 457.27 431.34 456.94 418.01 C 427.31 417.73 397.66 417.97 368.03 417.89 C 359.02 417.99 350.01 417.69 341.01 418.03 C 340.78 438.63 340.89 459.23 340.96 479.83 C 341.85 480.45 342.75 481.08 343.65 481.72 C 341.98 482.01 340.32 482.30 338.67 482.60 C 338.48 484.56 339.22 486.98 337.52 488.45 C 336.73 489.33 335.86 490.15 335.00 490.97 C 336.63 490.39 338.24 489.66 339.97 489.46 C 341.37 489.98 342.64 490.81 343.95 491.55 C 346.48 488.52 348.67 485.21 351.39 482.35 C 353.00 480.45 355.75 480.89 357.96 480.71 C 366.03 480.85 374.11 480.62 382.18 480.98 C 379.39 484.12 376.44 487.13 373.41 490.04 C 374.50 491.04 375.64 492.00 376.63 493.13 C 376.16 494.99 375.28 496.71 374.43 498.43 C 368.98 508.80 363.99 519.39 358.65 529.82 C 339.11 530.34 319.55 529.91 300.00 529.96 C 297.95 530.05 295.94 530.48 293.96 530.95 C 298.95 531.64 304.00 531.20 309.02 531.21 C 336.96 531.24 364.91 531.17 392.85 531.25 C 393.17 541.07 393.14 550.91 392.89 560.74 C 359.92 560.78 326.94 560.69 293.98 560.73 C 295.53 561.54 297.21 562.15 298.99 562.09 C 330.30 561.93 361.61 561.88 392.91 562.06 C 393.46 572.24 392.47 582.46 393.37 592.62 C 394.05 589.47 394.37 586.25 394.28 583.04 C 394.04 565.40 394.41 547.76 394.05 530.13 C 382.74 529.75 371.44 530.35 360.14 529.91 C 365.00 519.61 370.41 509.59 375.27 499.29 C 376.12 497.62 376.93 495.88 378.22 494.50 C 379.77 494.33 381.33 494.39 382.89 494.40 C 383.47 489.91 384.12 485.44 384.90 480.98 C 394.29 480.68 403.71 480.64 413.11 480.98 C 413.91 485.51 414.59 490.06 415.20 494.63 C 416.77 494.47 418.34 494.32 419.92 494.17 C 426.11 505.92 431.94 517.87 437.81 529.79 C 430.89 530.00 423.96 529.78 417.03 529.99 C 416.83 550.91 416.68 571.84 417.10 592.76 C 441.43 592.97 465.78 592.53 490.11 592.96 C 490.10 595.30 490.10 597.65 490.09 600.00 L 0.00 600.00 L 0.00 0.00 Z" />
<path fill="#efefef" d=" M 229.13 0.00 L 230.62 0.00 C 231.91 1.94 233.04 3.97 234.20 5.99 C 239.70 6.32 245.22 6.32 250.72 5.95 C 250.84 3.97 250.96 1.98 251.08 0.00 L 251.98 0.00 C 252.14 1.98 252.31 3.96 252.47 5.94 C 261.47 6.52 270.49 5.74 279.48 6.45 C 279.69 9.22 279.91 12.00 280.13 14.78 C 311.69 14.99 343.26 14.91 374.82 14.83 C 374.91 9.89 374.95 4.94 374.96 0.00 L 376.06 0.00 C 376.43 5.36 376.45 10.74 376.13 16.11 C 362.00 16.77 347.84 15.89 333.71 16.49 C 344.23 33.22 354.93 49.84 365.41 66.60 C 366.56 68.37 367.80 70.09 369.04 71.80 C 370.51 71.54 371.98 71.28 373.45 71.02 C 374.82 75.07 375.42 79.34 376.83 83.37 C 378.88 84.67 381.66 84.09 384.01 84.29 C 393.80 83.92 403.63 84.74 413.39 83.78 C 414.21 79.64 415.14 75.52 416.23 71.44 C 417.89 71.38 419.63 71.64 421.25 71.15 C 422.83 69.70 423.87 67.79 425.01 66.00 C 435.19 49.33 446.18 33.16 456.12 16.35 C 436.84 16.11 417.55 16.71 398.28 16.05 C 398.14 10.70 398.14 5.35 398.27 0.00 L 399.96 0.00 C 399.68 4.92 399.68 9.86 399.94 14.78 C 435.96 15.08 471.99 14.75 508.02 14.92 C 511.42 14.94 514.82 14.84 518.22 14.70 C 518.61 13.48 519.01 12.27 519.41 11.05 C 530.53 10.56 541.67 11.10 552.79 10.79 C 552.88 7.19 552.96 3.60 553.01 0.00 L 554.07 0.00 C 554.21 3.59 554.31 7.17 554.38 10.76 C 561.86 10.97 569.34 10.97 576.82 10.80 C 576.89 7.20 576.95 3.60 576.99 0.00 L 578.06 0.00 C 578.21 3.60 578.32 7.19 578.41 10.79 C 612.48 11.09 646.56 10.66 680.63 11.01 C 681.00 12.24 681.37 13.48 681.75 14.72 C 693.04 15.02 704.34 14.93 715.64 14.76 C 715.67 9.84 715.69 4.92 715.69 0.00 L 717.12 0.00 C 717.16 5.38 717.17 10.76 717.01 16.14 C 705.17 16.69 693.31 15.98 681.47 16.47 C 680.91 35.56 681.81 54.68 681.02 73.76 C 673.58 73.90 666.13 73.57 658.70 74.06 C 659.60 77.01 660.06 80.37 662.37 82.64 C 664.73 84.96 667.51 86.79 670.07 88.88 C 679.54 96.35 687.78 105.20 696.27 113.74 C 702.10 119.60 707.03 126.27 712.80 132.19 C 714.15 131.61 715.53 131.04 716.89 130.47 C 718.56 134.79 720.13 139.13 721.68 143.49 C 746.03 144.10 770.42 143.09 794.77 143.95 C 794.80 171.31 794.84 198.67 794.74 226.02 C 790.83 226.28 786.93 226.43 783.03 226.37 C 756.69 226.18 730.35 226.54 704.01 226.18 C 703.77 198.73 703.78 171.26 704.02 143.81 C 708.75 143.65 713.48 143.60 718.21 143.56 C 715.17 141.31 712.04 139.18 708.86 137.16 C 709.77 135.94 710.68 134.72 711.61 133.51 C 704.20 124.28 696.36 115.40 687.84 107.18 C 680.15 99.13 671.84 91.69 662.99 84.93 C 659.56 82.14 654.82 83.60 650.94 82.22 C 649.49 79.75 648.77 76.92 647.35 74.43 C 644.70 73.46 641.80 73.75 639.03 73.69 C 626.67 73.98 614.31 73.53 601.96 73.93 C 603.26 76.29 604.58 78.64 605.90 81.00 C 603.95 84.13 601.33 87.12 600.90 90.92 C 600.52 94.29 600.48 97.71 600.86 101.09 C 600.83 103.20 602.99 104.15 604.30 105.43 C 601.98 107.99 603.50 111.15 604.41 113.93 C 603.22 113.77 602.04 113.60 600.87 113.44 C 600.76 122.11 600.57 130.79 601.01 139.46 C 602.36 139.82 603.71 140.18 605.08 140.54 C 603.80 144.92 602.42 149.27 601.08 153.63 C 617.71 153.69 634.34 153.63 650.97 153.66 C 660.90 153.77 670.84 153.34 680.76 153.95 C 680.83 174.64 680.78 195.32 680.75 216.01 C 673.16 216.65 665.54 216.26 657.94 216.32 C 627.94 216.32 597.95 216.34 567.96 216.31 C 551.72 216.12 535.46 216.77 519.23 215.99 C 519.19 195.30 519.17 174.61 519.24 153.91 C 527.17 153.36 535.12 153.72 543.07 153.67 C 561.70 153.66 580.33 153.65 598.97 153.67 C 597.56 149.30 596.15 144.94 594.91 140.52 C 596.26 140.16 597.62 139.80 598.98 139.44 C 599.60 124.30 598.95 109.14 599.26 93.99 C 599.76 88.99 596.72 84.86 594.09 80.96 C 595.41 78.63 596.74 76.30 598.07 73.97 C 590.03 73.60 581.98 73.83 573.94 73.79 C 567.13 73.85 560.30 73.48 553.51 74.14 C 552.38 77.03 551.18 79.88 549.91 82.71 C 546.06 82.94 542.21 83.27 538.38 83.74 C 539.98 80.61 541.31 77.35 542.35 73.99 C 534.56 73.54 526.76 73.90 518.97 73.76 C 518.39 66.77 518.78 59.76 518.65 52.75 C 511.57 55.13 505.37 59.36 498.67 62.56 C 487.89 68.11 476.92 73.31 466.23 79.02 C 466.41 80.62 466.60 82.23 466.80 83.83 C 462.25 84.43 457.71 85.11 453.20 85.95 C 452.94 106.30 453.34 126.66 452.99 147.01 C 414.35 147.17 375.69 147.18 337.04 147.01 C 336.61 129.40 337.10 111.79 336.82 94.18 C 332.34 93.55 327.86 93.04 323.37 92.61 C 323.49 90.88 323.61 89.15 323.74 87.43 C 308.33 80.05 294.05 70.64 280.00 60.97 C 279.87 63.61 279.74 66.24 279.62 68.88 C 256.43 69.54 233.22 68.81 210.02 69.21 C 211.46 72.16 212.61 75.59 215.56 77.40 C 218.92 79.56 222.46 81.48 225.42 84.20 C 221.23 82.83 217.74 80.08 213.86 78.11 C 210.47 76.90 206.80 78.08 203.30 77.61 C 201.20 75.19 200.05 72.12 198.64 69.28 C 191.07 68.97 183.49 69.08 175.91 69.19 C 181.47 75.95 187.43 82.42 192.31 89.71 C 196.42 95.53 199.31 102.10 203.41 107.92 C 203.81 104.92 203.87 101.89 203.70 98.88 C 204.21 98.95 205.23 99.10 205.74 99.17 C 205.98 102.01 206.21 104.86 206.44 107.70 C 205.36 107.92 204.28 108.15 203.21 108.37 C 205.39 113.51 207.56 118.66 209.94 123.71 C 211.57 123.63 213.19 123.38 214.83 123.31 C 214.87 127.80 215.00 132.29 215.12 136.78 C 235.74 137.15 256.37 136.60 276.99 137.00 C 277.11 157.87 277.42 178.76 276.88 199.63 C 274.16 199.77 271.44 199.93 268.72 200.10 C 275.24 205.40 282.40 209.82 289.15 214.81 C 309.62 229.09 329.50 244.19 349.77 258.76 C 350.96 257.86 352.15 256.95 353.36 256.06 C 356.39 259.86 359.11 263.90 362.08 267.76 C 362.78 267.56 364.18 267.17 364.89 266.97 C 365.19 267.47 365.81 268.47 366.11 268.97 C 362.43 268.95 358.74 269.01 355.06 269.13 C 354.76 271.69 354.46 274.24 354.20 276.81 C 353.76 273.56 353.85 270.27 353.86 267.00 C 355.53 267.00 357.21 266.99 358.88 266.99 C 358.89 266.25 358.89 264.76 358.89 264.02 C 357.21 264.00 355.54 263.98 353.88 263.96 C 353.87 262.30 353.87 260.65 353.88 259.00 C 353.27 259.00 352.07 259.00 351.46 259.00 C 351.41 260.73 351.36 262.46 351.28 264.19 C 349.64 264.12 347.99 264.05 346.36 263.96 C 347.38 262.95 348.37 261.90 349.39 260.89 C 345.02 256.77 339.95 253.53 335.20 249.89 C 314.64 234.68 293.81 219.87 273.00 205.01 C 269.68 202.72 266.35 199.67 262.04 199.79 C 254.98 199.65 247.90 199.73 240.84 199.97 C 244.96 209.15 249.06 218.38 251.77 228.10 C 264.65 270.28 271.94 313.94 277.42 357.63 C 278.70 366.46 279.13 375.39 280.52 384.20 C 282.02 384.50 283.53 384.81 285.04 385.13 C 284.07 389.42 283.04 393.70 281.99 397.98 C 288.64 398.31 295.31 398.13 301.97 398.25 C 304.49 398.22 307.07 398.35 309.52 397.64 C 311.87 393.81 313.16 389.45 315.15 385.44 C 316.49 386.02 317.83 386.60 319.17 387.19 C 325.79 381.45 331.05 374.38 337.20 368.17 C 348.47 355.47 360.42 343.38 371.41 330.44 C 363.04 330.04 354.64 330.74 346.28 330.06 C 346.11 315.71 346.23 301.35 346.24 286.99 C 346.19 284.68 345.97 282.37 345.56 280.10 C 346.19 280.07 347.45 280.01 348.08 279.98 C 347.54 285.97 347.73 292.00 347.99 298.00 C 362.65 298.39 377.32 298.04 391.99 298.16 C 412.28 298.00 432.58 298.44 452.87 297.99 C 453.01 293.33 453.02 288.67 452.99 284.01 C 452.91 278.81 453.57 273.53 452.25 268.44 C 451.76 272.16 451.76 275.91 451.58 279.66 L 450.90 279.80 C 450.83 275.51 450.97 271.20 450.76 266.91 C 452.30 267.36 453.85 267.80 455.42 268.23 C 455.40 272.06 455.67 275.92 455.12 279.73 C 454.59 282.47 454.09 285.23 454.12 288.03 C 454.32 302.07 454.54 316.12 454.16 330.15 C 432.45 330.55 410.73 330.22 389.02 330.32 C 384.14 330.45 379.20 329.80 374.37 330.67 C 369.77 333.49 366.76 338.23 363.04 342.05 C 348.75 357.37 334.85 373.05 320.41 388.23 C 321.25 389.58 322.09 390.93 322.93 392.29 C 319.88 394.14 316.83 395.99 313.80 397.88 C 320.82 398.36 327.86 398.07 334.89 398.22 C 335.40 407.45 335.03 416.70 335.12 425.94 C 335.03 437.62 335.39 449.30 334.98 460.98 C 300.33 461.20 265.67 461.23 231.03 460.98 C 230.56 446.28 231.11 431.57 230.82 416.86 C 226.42 416.88 222.02 416.92 217.63 416.94 C 217.08 414.58 216.96 411.52 213.96 411.13 C 187.31 402.47 161.35 391.58 136.69 378.25 C 118.24 368.08 100.73 356.13 84.90 342.21 C 71.34 329.48 58.00 315.67 50.63 298.30 C 44.43 283.60 42.85 267.55 39.85 252.02 C 37.28 238.87 35.19 225.41 36.66 211.99 C 38.96 180.52 52.24 151.08 68.45 124.45 C 76.95 111.17 85.84 98.09 96.07 86.06 C 97.54 84.24 99.21 82.49 100.14 80.30 C 101.03 77.53 100.97 74.55 101.85 71.78 C 103.11 70.33 105.24 70.04 106.90 69.20 C 72.56 68.97 38.20 69.34 3.86 68.98 C 3.44 61.01 3.74 53.02 3.67 45.04 C 3.86 32.10 3.29 19.14 3.96 6.21 C 79.96 6.00 155.97 6.40 231.96 6.03 C 231.05 4.00 230.16 1.97 229.13 0.00 Z" />
<path fill="#ffffff" d=" M 230.62 0.00 L 251.08 0.00 C 250.96 1.98 250.84 3.97 250.72 5.95 C 245.22 6.32 239.70 6.32 234.20 5.99 C 233.04 3.97 231.91 1.94 230.62 0.00 Z" />
<path fill="#feffff" d=" M 251.98 0.00 L 374.96 0.00 C 374.95 4.94 374.91 9.89 374.82 14.83 C 343.26 14.91 311.69 14.99 280.13 14.78 C 279.91 12.00 279.69 9.22 279.48 6.45 C 270.49 5.74 261.47 6.52 252.47 5.94 C 252.31 3.96 252.14 1.98 251.98 0.00 Z" />
<path fill="#ffffff" d=" M 376.06 0.00 L 398.27 0.00 C 398.14 5.35 398.14 10.70 398.28 16.05 C 417.55 16.71 436.84 16.11 456.12 16.35 C 446.18 33.16 435.19 49.33 425.01 66.00 C 423.87 67.79 422.83 69.70 421.25 71.15 C 419.63 71.64 417.89 71.38 416.23 71.44 C 415.14 75.52 414.21 79.64 413.39 83.78 C 403.63 84.74 393.80 83.92 384.01 84.29 C 381.66 84.09 378.88 84.67 376.83 83.37 C 375.42 79.34 374.82 75.07 373.45 71.02 C 371.98 71.28 370.51 71.54 369.04 71.80 C 367.80 70.09 366.56 68.37 365.41 66.60 C 354.93 49.84 344.23 33.22 333.71 16.49 C 347.84 15.89 362.00 16.77 376.13 16.11 C 376.45 10.74 376.43 5.36 376.06 0.00 Z" />
<path fill="#feffff" d=" M 399.96 0.00 L 553.01 0.00 C 552.96 3.60 552.88 7.19 552.79 10.79 C 541.67 11.10 530.53 10.56 519.41 11.05 C 519.01 12.27 518.61 13.48 518.22 14.70 C 514.82 14.84 511.42 14.94 508.02 14.92 C 471.99 14.75 435.96 15.08 399.94 14.78 C 399.68 9.86 399.68 4.92 399.96 0.00 Z" />
<path fill="#ffffff" d=" M 554.07 0.00 L 576.99 0.00 C 576.95 3.60 576.89 7.20 576.82 10.80 C 569.34 10.97 561.86 10.97 554.38 10.76 C 554.31 7.17 554.21 3.59 554.07 0.00 Z" />
<path fill="#feffff" d=" M 578.06 0.00 L 715.69 0.00 C 715.69 4.92 715.67 9.84 715.64 14.76 C 704.34 14.93 693.04 15.02 681.75 14.72 C 681.37 13.48 681.00 12.24 680.63 11.01 C 646.56 10.66 612.48 11.09 578.41 10.79 C 578.32 7.19 578.21 3.60 578.06 0.00 Z" />
<path fill="#feffff" d=" M 5.24 7.95 C 10.81 7.65 16.39 7.78 21.97 7.79 C 90.98 7.78 159.98 7.82 228.98 7.75 C 230.83 7.95 233.46 7.54 234.30 9.70 C 239.63 19.41 246.31 28.27 253.38 36.76 C 248.93 37.07 244.46 37.05 240.00 37.02 C 161.72 36.95 83.43 37.06 5.15 36.96 C 5.13 27.29 5.01 17.62 5.24 7.95 Z" />
<path fill="#feffff" d=" M 235.01 8.03 C 240.27 7.65 245.54 7.66 250.80 8.03 C 250.87 10.75 250.94 13.47 251.02 16.19 C 260.00 16.60 269.00 16.20 277.99 16.34 C 278.42 23.19 278.31 30.06 278.07 36.91 C 271.39 37.06 264.71 37.11 258.03 36.96 C 256.36 37.15 255.05 36.12 254.00 34.95 C 246.57 26.83 240.22 17.73 235.01 8.03 Z" />
<path fill="#fdffff" d=" M 252.31 8.08 C 260.90 7.64 269.52 7.69 278.12 7.99 C 278.13 10.27 278.13 12.54 278.12 14.82 C 269.51 14.92 260.89 15.01 252.28 14.74 C 252.29 12.52 252.30 10.30 252.31 8.08 Z" />
<path fill="#fdffff" d=" M 520.27 12.31 C 531.08 12.36 541.90 12.34 552.71 12.33 C 552.76 12.94 552.87 14.16 552.92 14.77 C 541.97 14.92 531.02 14.94 520.07 14.83 C 520.12 14.20 520.22 12.94 520.27 12.31 Z" />
<path fill="#feffff" d=" M 555.01 12.50 C 562.17 12.11 569.34 12.46 576.51 12.34 C 576.75 13.60 576.99 14.87 577.25 16.14 C 580.15 16.26 583.06 16.35 585.97 16.44 C 582.50 18.94 578.32 19.96 574.11 18.95 C 574.79 19.75 575.48 20.55 576.17 21.35 C 573.61 23.48 570.37 23.41 567.25 23.37 C 565.74 24.90 564.59 26.72 563.31 28.42 C 563.05 25.32 562.90 22.21 562.84 19.09 C 562.26 19.06 561.11 19.00 560.54 18.97 C 561.04 22.49 561.18 26.06 560.80 29.61 C 559.92 30.04 559.04 30.48 558.18 30.92 C 558.03 27.00 557.92 23.09 557.83 19.18 C 557.26 19.13 556.10 19.04 555.52 18.99 C 555.87 22.62 556.44 26.29 555.89 29.93 C 555.46 32.86 552.24 33.73 550.03 34.98 C 545.19 37.10 540.76 40.30 535.54 41.44 C 530.46 42.11 525.33 41.70 520.23 41.70 C 519.99 33.24 520.09 24.76 520.18 16.30 C 530.80 16.23 541.44 16.50 552.06 16.26 C 554.08 16.41 554.15 13.76 555.01 12.50 Z" />
<path fill="#fdffff" d=" M 577.75 14.68 C 578.72 11.36 582.37 12.41 585.00 12.28 C 616.58 12.47 648.16 12.23 679.74 12.36 C 679.77 12.96 679.83 14.16 679.86 14.76 C 655.26 15.04 630.66 14.76 606.06 14.86 C 596.62 14.76 587.18 15.14 577.75 14.68 Z" />
<path fill="#efefef" d=" M 156.48 13.99 C 157.08 14.02 158.27 14.08 158.86 14.11 C 158.93 16.56 158.99 19.01 159.05 21.46 C 159.43 21.51 160.20 21.62 160.58 21.67 C 162.05 23.59 163.73 25.39 165.96 26.44 C 166.29 22.76 164.44 18.37 167.30 15.32 C 168.73 13.14 171.74 14.28 173.91 14.00 C 173.91 18.34 174.04 22.69 174.48 27.02 C 173.48 27.01 172.49 27.00 171.50 27.00 C 172.00 23.01 172.13 18.99 171.92 14.99 C 170.45 15.45 169.00 15.96 167.57 16.51 C 168.00 16.93 168.85 17.78 169.27 18.21 C 167.47 20.87 168.12 24.08 168.50 27.06 C 166.72 27.02 164.93 27.07 163.16 26.81 C 161.68 25.72 160.54 24.27 159.31 22.92 C 159.08 24.22 158.86 25.52 158.63 26.81 C 158.09 26.88 157.00 27.00 156.46 27.07 C 157.19 22.74 157.18 18.32 156.48 13.99 Z" />
<path fill="#ffffff" d=" M 280.04 16.33 C 296.68 16.25 313.32 16.39 329.96 16.30 C 331.67 15.92 332.58 17.38 333.37 18.62 C 344.82 36.78 356.38 54.86 367.91 72.96 C 366.86 74.07 365.73 75.09 364.69 76.21 C 367.54 78.82 370.65 81.14 373.37 83.90 C 361.33 84.67 349.25 83.93 337.19 84.27 C 337.03 86.55 336.86 88.84 336.68 91.13 C 333.75 88.41 330.94 85.56 328.00 82.85 C 326.90 83.96 325.87 85.14 324.77 86.25 C 315.70 82.40 307.41 76.99 298.94 72.02 C 292.72 67.65 285.87 64.01 280.36 58.75 C 279.30 55.26 279.85 51.53 279.75 47.94 C 280.01 37.40 279.45 26.86 280.04 16.33 Z" />
<path fill="#ffffff" d=" M 456.60 18.66 C 457.39 17.44 458.29 15.99 459.99 16.34 C 479.50 16.40 499.03 16.13 518.54 16.45 C 518.82 27.86 518.67 39.27 518.63 50.68 C 500.63 59.83 482.88 69.51 464.55 77.97 C 463.89 76.68 463.24 75.39 462.59 74.10 C 458.71 77.05 456.07 81.44 451.89 83.96 C 447.95 84.56 443.95 84.14 439.98 84.21 C 432.19 84.08 424.39 84.52 416.62 83.95 C 419.38 81.19 422.50 78.83 425.35 76.17 C 424.26 75.08 423.14 74.04 422.06 72.96 C 433.63 54.90 445.12 36.78 456.60 18.66 Z" />
<path fill="#feffff" d=" M 584.31 20.26 C 585.65 16.87 589.84 16.25 593.05 16.30 C 621.94 16.38 650.84 16.27 679.73 16.36 C 679.96 24.82 680.01 33.29 679.75 41.74 C 633.19 41.73 586.63 41.82 540.08 41.68 C 544.87 38.80 549.98 36.52 554.92 33.92 C 557.47 32.49 560.37 32.00 563.24 31.64 C 563.49 30.82 563.74 30.01 564.01 29.19 C 566.03 30.37 568.14 32.82 570.71 31.69 C 573.41 30.25 572.86 26.78 573.39 24.24 C 574.46 23.83 575.53 23.42 576.62 23.01 C 577.54 26.26 578.60 29.47 579.92 32.58 C 581.29 30.54 582.53 28.41 583.57 26.18 C 584.49 27.92 584.02 32.28 586.66 31.72 C 588.58 27.57 589.52 23.03 591.65 18.96 C 590.66 19.00 589.69 19.04 588.72 19.07 C 588.75 22.60 587.80 26.01 586.52 29.26 C 585.41 26.40 583.83 23.40 584.31 20.26 Z" />
<path fill="#fdfefe" d=" M 578.73 21.93 C 579.76 21.33 580.80 20.74 581.84 20.14 C 583.06 23.30 582.60 26.65 580.43 29.26 C 579.78 26.83 579.23 24.39 578.73 21.93 Z" />
<path fill="#feffff" d=" M 5.27 38.27 C 87.50 38.14 169.74 38.28 251.97 38.21 C 253.28 38.29 254.74 38.28 255.74 39.29 C 258.95 41.98 261.69 45.17 264.69 48.07 C 263.91 50.45 263.15 52.83 262.35 55.20 C 261.58 53.21 261.25 51.09 261.29 48.95 C 260.86 48.99 259.99 49.06 259.56 49.10 C 259.37 50.84 259.04 52.57 258.51 54.25 C 257.82 52.58 257.17 50.89 256.54 49.19 C 255.92 49.15 254.68 49.07 254.06 49.02 C 255.45 52.03 256.94 55.00 258.52 57.92 C 259.19 56.66 259.86 55.41 260.53 54.16 C 261.25 55.42 261.97 56.69 262.69 57.95 C 263.79 55.08 265.06 52.26 266.73 49.67 C 270.30 53.00 274.57 55.60 277.71 59.36 C 278.71 62.00 278.09 64.88 277.99 67.62 C 187.09 67.61 96.19 67.66 5.27 67.66 C 5.02 57.87 5.04 48.06 5.27 38.27 Z" />
<path fill="#feffff" d=" M 257.52 38.61 C 264.30 37.77 271.13 38.38 277.93 38.24 C 278.42 44.48 278.35 50.76 277.98 57.01 C 270.58 51.60 263.45 45.64 257.52 38.61 Z" />
<path fill="#feffff" d=" M 520.11 43.05 C 524.45 42.87 528.80 42.85 533.14 43.20 C 528.97 45.72 524.55 47.78 520.16 49.88 C 520.13 47.60 520.11 45.33 520.11 43.05 Z" />
<path fill="#feffff" d=" M 527.66 47.66 C 531.92 45.58 536.12 42.68 541.09 42.96 C 587.33 43.00 633.57 42.87 679.81 43.03 C 679.91 52.68 679.94 62.34 679.82 72.00 C 626.61 72.30 573.38 72.20 520.17 72.06 C 520.26 65.22 519.60 58.31 520.53 51.53 C 522.72 49.93 525.26 48.91 527.66 47.66 Z" />
<path fill="#efefef" d=" M 226.45 44.97 C 227.04 45.00 228.23 45.08 228.82 45.11 C 228.92 47.37 229.03 49.64 229.19 51.90 C 231.41 53.77 233.37 55.96 235.91 57.43 C 235.91 53.17 234.76 48.42 238.16 45.05 C 240.08 45.06 242.01 45.05 243.93 45.04 C 243.90 49.34 244.01 53.64 244.45 57.92 C 243.46 57.96 242.47 57.99 241.48 58.03 C 241.99 54.06 242.14 50.05 241.96 46.05 C 240.44 46.36 238.96 46.84 237.57 47.52 C 238.01 47.96 238.87 48.85 239.30 49.30 C 237.42 51.90 238.09 55.10 238.51 58.06 C 236.68 58.05 234.86 58.03 233.05 58.03 C 231.83 56.66 230.62 55.30 229.40 53.93 C 229.16 55.24 228.92 56.54 228.69 57.85 C 228.15 57.90 227.07 58.01 226.52 58.06 C 227.17 53.72 227.19 49.30 226.45 44.97 Z" />
<path fill="#ffffff" d=" M 112.24 69.20 C 116.80 69.04 121.35 69.05 125.91 69.19 C 123.82 70.71 121.58 72.09 119.87 74.04 C 119.83 77.32 121.20 80.43 121.29 83.69 C 120.78 86.47 119.53 89.04 118.63 91.70 C 113.61 106.06 109.24 120.70 106.57 135.70 C 104.08 149.85 101.88 164.27 103.43 178.65 C 105.12 193.80 107.57 208.88 111.40 223.64 C 114.26 234.15 117.61 244.51 121.04 254.84 C 119.71 255.74 118.39 256.65 117.07 257.56 C 119.73 260.87 122.56 264.06 124.93 267.59 C 111.62 267.85 98.30 267.44 84.98 267.81 C 84.84 288.60 84.76 309.40 85.03 330.18 C 118.36 330.56 151.69 330.15 185.01 330.38 C 187.69 330.39 190.37 330.28 193.04 330.14 C 193.17 309.38 193.23 288.61 192.99 267.85 C 185.26 267.35 177.51 267.83 169.77 267.58 C 172.13 263.79 175.22 260.54 177.94 257.02 C 188.95 243.40 197.72 228.15 205.33 212.42 C 206.84 212.85 208.37 213.24 209.89 213.67 C 210.66 209.17 211.07 204.63 211.40 200.09 C 217.91 199.49 224.44 199.93 230.96 199.73 C 233.55 199.74 236.19 199.56 238.74 200.16 C 240.47 201.99 241.27 204.46 242.31 206.71 C 248.39 220.23 252.34 234.57 256.21 248.85 C 267.61 293.34 274.45 338.90 278.90 384.58 C 277.42 385.00 275.95 385.44 274.48 385.87 C 275.96 390.03 277.97 393.97 279.87 397.95 C 263.62 398.44 247.36 398.00 231.11 398.22 C 230.72 403.52 230.91 408.84 230.76 414.16 C 226.99 411.86 223.63 408.90 219.66 406.93 C 219.07 408.20 218.48 409.48 217.89 410.76 C 184.20 400.23 151.47 386.19 121.37 367.66 C 100.99 354.67 81.66 339.58 66.26 320.81 C 58.62 311.78 52.58 301.31 49.07 289.98 C 46.60 282.85 45.44 275.38 43.99 268.00 C 42.39 258.10 40.37 248.28 38.91 238.36 C 41.12 238.47 43.33 238.61 45.53 238.79 C 45.15 236.13 45.37 233.26 44.26 230.78 C 42.26 228.63 38.98 230.51 38.60 233.10 C 40.17 232.38 41.73 231.64 43.31 230.93 C 42.59 233.39 40.28 234.58 38.29 235.86 C 37.28 222.02 37.50 207.99 40.49 194.39 C 46.52 165.81 59.88 139.26 76.13 115.17 C 83.06 104.31 91.12 94.22 99.19 84.20 C 101.90 80.53 106.86 80.41 110.81 78.92 C 111.36 75.69 111.84 72.45 112.24 69.20 Z" />
<path fill="#ffffff" d=" M 134.79 69.19 C 146.20 69.02 157.62 69.25 169.03 69.05 C 170.94 69.24 173.32 68.68 174.79 70.25 C 189.57 85.75 200.98 104.32 208.54 124.35 C 207.24 125.15 205.94 125.96 204.65 126.76 C 207.23 130.24 210.05 133.54 212.93 136.77 C 198.34 137.12 183.73 136.64 169.14 136.99 C 168.96 138.70 168.77 140.42 168.59 142.13 C 166.19 138.86 163.92 135.49 161.37 132.33 C 160.27 133.23 159.17 134.12 158.08 135.01 C 156.32 133.87 154.56 132.75 152.76 131.68 C 154.12 133.45 155.52 135.19 156.94 136.91 C 156.37 138.24 155.81 139.58 155.24 140.91 C 159.79 142.22 164.34 143.50 168.77 145.18 C 168.85 161.29 169.10 177.42 168.67 193.53 C 165.71 195.38 162.83 197.45 160.68 200.25 C 163.51 198.88 166.10 197.09 168.58 195.18 C 168.80 196.70 169.02 198.22 169.24 199.74 C 182.51 200.04 195.79 199.39 209.04 200.03 C 206.36 203.10 203.38 205.88 200.66 208.92 C 201.75 209.99 202.93 210.98 204.02 212.06 C 196.42 227.78 187.54 242.96 176.57 256.58 C 173.42 260.28 170.82 264.68 166.74 267.45 C 162.87 268.01 158.94 267.59 155.04 267.66 C 148.21 267.54 141.36 267.96 134.54 267.36 C 135.76 263.04 137.21 258.79 138.10 254.39 C 136.71 254.13 135.32 253.88 133.93 253.64 C 133.54 238.12 139.37 222.39 150.24 211.23 C 151.87 209.58 153.27 207.73 154.43 205.73 C 149.91 208.70 146.58 213.04 143.47 217.38 C 139.28 223.41 135.98 230.14 134.41 237.35 C 133.10 242.75 132.80 248.32 131.97 253.81 C 130.59 254.06 129.21 254.31 127.83 254.57 C 128.54 259.18 131.10 263.20 132.15 267.73 C 130.56 267.66 128.97 267.59 127.38 267.52 C 127.15 263.02 127.10 258.52 127.01 254.02 C 125.44 254.15 123.87 254.27 122.30 254.40 C 112.50 226.26 105.28 196.94 104.17 167.05 C 105.44 139.58 112.27 112.61 121.80 86.90 C 122.76 83.52 125.91 81.72 128.74 80.07 C 130.24 82.81 131.08 85.85 130.99 88.99 C 131.09 99.26 134.09 109.54 139.95 118.02 C 142.25 121.52 144.80 124.98 148.36 127.31 C 147.16 125.07 145.59 123.06 143.95 121.14 C 135.65 111.19 131.78 97.93 132.26 85.10 C 133.77 82.08 136.33 79.75 138.23 76.98 C 137.04 74.40 135.89 71.80 134.79 69.19 Z" />
<path fill="#feffff" d=" M 338.29 86.06 C 342.86 85.70 347.45 85.70 352.03 85.78 C 378.37 85.78 404.71 85.82 431.05 85.79 C 437.92 85.92 444.80 85.50 451.66 86.04 C 451.68 95.65 451.67 105.26 451.72 114.86 C 416.83 115.33 381.92 114.86 347.02 115.07 C 344.12 115.11 341.22 115.00 338.32 114.83 C 338.31 105.24 338.34 95.65 338.29 86.06 Z" />
<path fill="#efefef" d=" M 723.88 106.04 C 726.16 105.48 728.48 105.08 730.83 104.79 C 730.43 106.43 730.11 108.11 729.51 109.69 C 728.54 110.66 727.20 111.11 726.06 111.79 C 728.37 112.23 730.69 112.69 733.01 113.15 C 732.97 110.38 732.81 107.61 732.49 104.86 C 733.13 104.95 734.40 105.12 735.04 105.20 C 735.37 107.97 735.44 110.76 735.41 113.55 C 734.03 114.12 732.67 114.69 731.30 115.26 C 729.28 114.61 727.24 114.07 725.19 113.59 C 724.63 111.09 724.21 108.57 723.88 106.04 Z" />
<path fill="#ffffff" d=" M 726.78 105.69 C 727.72 106.52 728.67 107.35 729.62 108.18 C 728.36 108.91 727.11 109.65 725.86 110.37 C 726.15 108.80 726.46 107.24 726.78 105.69 Z" />
<path fill="#f0f0f0" d=" M 501.25 114.28 C 502.94 112.42 504.91 110.82 507.16 109.67 C 501.42 117.33 493.63 123.17 487.39 130.40 C 483.56 135.13 478.98 139.18 475.05 143.83 C 475.93 145.08 476.78 146.35 477.66 147.60 C 474.33 149.46 471.05 151.40 467.90 153.55 C 477.29 153.89 486.68 153.36 496.07 153.86 C 496.15 174.61 496.31 195.36 496.00 216.11 C 471.68 216.67 447.33 216.16 423.00 216.35 C 409.99 216.20 396.98 216.56 383.97 216.18 C 383.74 204.13 383.88 192.08 383.90 180.03 C 383.82 176.24 384.51 172.20 382.66 168.70 C 382.30 170.10 381.95 171.50 381.61 172.91 C 381.08 172.95 380.02 173.03 379.48 173.07 C 380.11 168.73 380.12 164.32 379.53 159.97 C 380.12 159.99 381.29 160.02 381.88 160.04 C 381.98 162.72 382.09 165.40 382.19 168.08 C 382.57 167.73 383.32 167.05 383.70 166.71 C 383.83 162.44 383.87 158.17 383.95 153.90 C 390.28 153.43 396.63 153.70 402.97 153.65 C 422.32 153.67 441.67 153.57 461.03 153.68 C 462.19 153.50 463.94 153.98 464.56 152.61 C 466.71 148.64 467.85 144.21 469.98 140.22 C 471.26 141.06 472.53 141.92 473.82 142.76 C 477.64 138.92 481.48 135.08 484.96 130.93 C 490.15 125.15 495.92 119.93 501.25 114.28 Z" />
<path fill="#feffff" d=" M 338.36 116.26 C 376.13 116.22 413.90 116.09 451.67 116.29 C 451.64 126.08 451.72 135.87 451.62 145.66 C 413.86 145.66 376.10 145.70 338.34 145.64 C 338.30 135.85 338.31 126.05 338.36 116.26 Z" />
<path fill="#feffff" d=" M 170.37 138.36 C 205.46 138.28 240.55 138.35 275.65 138.35 C 275.67 148.12 275.65 157.89 275.67 167.66 C 240.55 167.82 205.43 167.72 170.32 167.70 C 170.34 157.92 170.31 148.14 170.37 138.36 Z" />
<path fill="#feffff" d=" M 705.39 145.24 C 734.62 144.97 763.86 145.16 793.09 145.16 C 793.27 161.41 793.39 177.68 793.00 193.93 C 774.01 194.49 755.00 194.00 736.00 194.18 C 725.77 194.01 715.53 194.48 705.31 193.89 C 705.38 177.67 705.28 161.45 705.39 145.24 Z" />
<path fill="#feffff" d=" M 385.31 155.26 C 421.76 155.05 458.23 155.06 494.69 155.25 C 494.62 164.80 494.65 174.35 494.65 183.90 C 466.43 184.44 438.19 183.97 409.97 184.15 C 401.76 183.99 393.54 184.37 385.33 183.92 C 385.27 180.51 385.28 177.10 385.40 173.70 C 386.72 172.89 388.04 172.08 389.35 171.26 C 389.54 171.47 389.91 171.89 390.09 172.10 C 390.11 172.42 390.15 173.07 390.17 173.39 C 390.84 172.92 392.17 171.98 392.84 171.51 C 392.24 168.71 390.82 166.17 389.68 163.57 C 389.13 164.64 388.45 165.65 388.05 166.79 C 388.94 168.28 390.11 169.57 391.21 170.90 C 390.93 171.20 390.37 171.80 390.09 172.10 C 389.79 171.64 389.18 170.74 388.88 170.28 C 388.21 170.83 387.55 171.37 386.88 171.89 C 386.24 170.46 385.11 169.03 385.62 167.37 C 386.40 163.34 384.84 159.32 385.31 155.26 Z" />
<path fill="#feffff" d=" M 520.95 155.19 C 573.65 155.09 626.36 155.04 679.06 155.22 C 679.28 164.80 679.33 174.39 679.04 183.97 C 656.03 184.43 633.01 184.04 609.99 184.17 C 580.32 184.05 550.64 184.40 520.96 184.01 C 520.70 174.41 520.61 164.79 520.95 155.19 Z" />
<path fill="#f0f0f0" d=" M 395.34 162.16 C 398.70 162.20 401.71 160.58 404.94 159.98 C 407.84 160.24 406.80 163.68 406.64 165.62 C 406.12 167.84 406.50 170.07 407.40 172.14 C 408.84 168.95 409.84 165.54 409.72 162.01 C 410.73 161.97 411.75 161.93 412.77 161.89 C 410.69 166.06 409.36 170.53 407.79 174.89 C 406.51 174.28 405.25 173.62 403.91 173.15 C 402.71 173.59 401.63 174.30 400.53 174.92 C 399.18 170.52 397.38 166.28 395.34 162.16 Z" />
<path fill="#efefef" d=" M 632.30 161.90 C 633.61 161.94 634.93 161.98 636.25 162.02 C 636.68 165.51 637.46 168.94 638.57 172.27 C 641.11 169.24 640.80 165.40 639.32 161.97 C 640.33 161.98 641.34 161.99 642.36 162.01 C 642.11 165.53 642.99 168.97 644.44 172.16 C 645.78 168.92 646.73 165.50 646.75 161.98 C 648.77 162.01 650.80 162.05 652.84 162.09 C 652.92 164.02 653.05 165.94 653.13 167.87 C 654.25 167.16 655.29 166.34 656.44 165.65 C 658.33 168.41 658.19 171.85 658.57 175.04 C 657.97 174.99 656.77 174.90 656.17 174.86 C 656.04 172.56 655.91 170.27 655.78 167.97 C 654.87 168.39 653.97 168.80 653.08 169.22 C 653.19 171.14 653.32 173.07 653.45 174.99 C 652.46 175.00 651.48 175.02 650.51 175.03 C 651.03 170.92 651.21 166.76 650.89 162.63 C 649.80 163.24 648.42 163.69 648.14 165.08 C 646.77 168.65 646.07 172.51 643.92 175.74 C 642.77 173.64 642.04 171.36 641.57 169.03 C 640.32 170.97 639.96 174.28 637.48 174.92 C 635.57 170.64 635.48 165.56 632.30 161.90 Z" />
<path fill="#eeefef" d=" M 388.05 166.79 C 388.45 165.65 389.13 164.64 389.68 163.57 C 390.82 166.17 392.24 168.71 392.84 171.51 C 392.17 171.98 390.84 172.92 390.17 173.39 C 390.15 173.07 390.11 172.42 390.09 172.10 C 390.37 171.80 390.93 171.20 391.21 170.90 C 390.11 169.57 388.94 168.28 388.05 166.79 Z" />
<path fill="#feffff" d=" M 170.34 169.11 C 205.44 168.95 240.56 168.88 275.66 169.14 C 275.69 178.73 275.67 188.33 275.68 197.92 C 270.48 198.28 265.26 198.18 260.05 198.17 C 234.02 198.20 207.99 198.14 181.96 198.18 C 178.07 198.24 174.18 198.19 170.30 197.90 C 170.38 188.30 170.23 178.71 170.34 169.11 Z" />
<path fill="#efefef" d=" M 733.38 171.96 C 734.66 171.97 735.96 171.98 737.27 172.00 C 737.70 175.46 738.48 178.88 739.60 182.19 C 742.08 179.17 741.83 175.38 740.27 172.00 C 741.28 172.00 742.29 172.00 743.32 172.01 C 743.15 175.53 744.03 178.96 745.44 182.16 C 746.77 178.91 747.76 175.49 747.74 171.95 C 749.76 171.97 751.79 172.00 753.83 172.02 C 753.90 173.98 754.05 175.93 754.12 177.89 C 755.25 177.17 756.30 176.34 757.46 175.64 C 759.31 178.39 759.21 181.78 759.58 184.95 C 758.96 184.95 757.74 184.94 757.13 184.93 C 757.05 182.64 756.98 180.34 756.92 178.04 C 755.95 178.38 754.99 178.73 754.04 179.07 C 754.17 181.05 754.32 183.04 754.48 185.02 C 753.48 185.02 752.50 185.02 751.52 185.02 C 752.04 180.88 752.21 176.70 751.83 172.54 C 750.81 173.23 749.50 173.75 749.20 175.07 C 747.85 178.64 746.98 182.41 744.93 185.68 C 743.82 183.62 743.08 181.38 742.59 179.10 C 741.35 181.08 740.91 184.28 738.44 185.03 C 736.66 180.70 736.42 175.71 733.38 171.96 Z" />
<path fill="#feffff" d=" M 385.34 186.08 C 405.23 185.45 425.14 186.04 445.04 185.83 C 461.59 185.96 478.15 185.59 494.70 186.02 C 494.71 195.61 494.64 205.19 494.68 214.77 C 458.23 214.87 421.77 215.00 385.32 214.73 C 385.38 205.18 385.29 195.63 385.34 186.08 Z" />
<path fill="#feffff" d=" M 520.96 186.02 C 546.95 185.50 572.95 185.92 598.94 185.78 C 625.65 185.87 652.37 185.58 679.08 185.95 C 679.30 195.58 679.34 205.21 679.07 214.83 C 626.37 214.88 573.67 214.96 520.97 214.80 C 520.68 205.21 520.66 195.60 520.96 186.02 Z" />
<path fill="#feffff" d=" M 705.30 196.02 C 730.86 195.46 756.44 195.98 782.01 195.76 C 785.67 195.70 789.33 195.78 793.00 195.96 C 793.37 205.59 793.35 215.23 792.99 224.86 C 763.76 224.78 734.53 225.09 705.30 224.73 C 705.37 215.16 705.32 205.59 705.30 196.02 Z" />
<path fill="#ffffff" d=" M 240.84 199.97 C 247.90 199.73 254.98 199.65 262.04 199.79 C 266.35 199.67 269.68 202.72 273.00 205.01 C 293.81 219.87 314.64 234.68 335.20 249.89 C 339.95 253.53 345.02 256.77 349.39 260.89 C 348.37 261.90 347.38 262.95 346.36 263.96 C 344.50 265.80 343.05 267.99 341.52 270.10 C 340.24 268.06 338.93 266.05 337.63 264.03 C 336.78 264.01 335.07 263.97 334.21 263.95 C 336.27 266.56 338.19 269.28 340.09 272.01 C 338.13 274.80 336.09 277.52 334.10 280.29 C 338.18 280.69 339.35 276.41 341.40 273.84 C 342.80 275.91 344.26 277.96 345.56 280.10 C 345.97 282.37 346.19 284.68 346.24 286.99 C 346.23 301.35 346.11 315.71 346.28 330.06 C 354.64 330.74 363.04 330.04 371.41 330.44 C 360.42 343.38 348.47 355.47 337.20 368.17 C 331.05 374.38 325.79 381.45 319.17 387.19 C 317.83 386.60 316.49 386.02 315.15 385.44 C 313.16 389.45 311.87 393.81 309.52 397.64 C 307.07 398.35 304.49 398.22 301.97 398.25 C 295.31 398.13 288.64 398.31 281.99 397.98 C 283.04 393.70 284.07 389.42 285.04 385.13 C 283.53 384.81 282.02 384.50 280.52 384.20 C 279.13 375.39 278.70 366.46 277.42 357.63 C 271.94 313.94 264.65 270.28 251.77 228.10 C 249.06 218.38 244.96 209.15 240.84 199.97 Z" />
<path fill="#efefef" d=" M 469.41 220.41 C 486.26 219.86 503.14 220.31 520.00 220.17 C 548.33 220.18 576.66 220.16 604.99 220.16 C 605.73 229.10 605.21 238.08 605.36 247.03 C 605.24 265.69 605.58 284.36 605.17 303.01 C 585.84 303.32 566.50 302.99 547.17 303.16 C 548.86 305.73 550.51 308.32 552.11 310.96 C 550.06 314.41 547.16 317.71 547.00 321.92 C 546.83 326.39 546.48 331.02 547.62 335.40 C 549.04 338.67 553.27 336.78 555.98 337.32 C 557.34 339.84 557.18 342.83 557.59 345.60 C 554.79 345.57 551.85 345.09 549.17 346.13 C 547.66 347.28 546.95 349.16 545.94 350.72 C 559.30 351.16 572.67 350.60 586.02 351.01 C 586.12 354.36 586.19 357.71 586.25 361.06 C 591.30 362.31 596.73 362.89 601.15 365.87 C 605.08 368.62 608.46 372.55 609.54 377.32 C 610.69 382.60 609.95 388.40 607.03 393.00 C 605.20 395.80 602.22 397.51 600.11 400.04 C 599.56 401.52 599.63 403.15 599.42 404.71 C 594.89 404.18 590.33 403.87 585.78 403.77 C 586.31 405.64 585.83 408.20 587.68 409.44 C 589.36 410.59 591.42 409.36 593.27 409.75 C 594.24 412.43 594.30 415.32 594.60 418.13 C 594.02 418.05 592.86 417.90 592.29 417.82 C 592.10 415.57 591.89 413.32 591.72 411.08 C 590.84 411.43 589.98 411.78 589.12 412.14 C 589.22 414.10 589.30 416.06 589.42 418.02 C 588.47 418.02 587.53 418.02 586.60 418.03 C 586.76 415.30 586.92 412.57 587.07 409.84 C 586.50 411.13 585.94 412.42 585.39 413.72 C 572.33 414.04 559.26 413.44 546.21 414.01 C 547.25 425.10 546.88 436.24 547.10 447.35 C 549.75 447.94 552.35 448.86 554.51 450.56 C 552.65 451.70 550.79 452.85 548.93 453.99 C 549.21 454.37 549.77 455.13 550.05 455.51 C 551.10 455.48 552.16 455.45 553.22 455.42 C 550.26 456.60 547.11 458.05 546.64 461.60 C 559.76 461.85 572.89 461.39 586.01 461.82 C 586.30 482.59 586.20 503.37 586.01 524.14 C 558.32 524.57 530.62 524.19 502.93 524.34 C 505.70 526.53 508.35 528.95 511.50 530.63 C 512.70 531.40 514.09 530.69 515.37 530.55 C 519.18 529.62 523.11 529.74 527.00 529.85 C 547.39 530.04 567.78 529.69 588.17 530.00 C 588.51 541.64 588.23 553.29 588.31 564.94 C 588.47 570.39 587.28 576.22 589.96 581.26 C 598.87 573.54 606.10 564.04 615.40 556.77 C 614.14 558.65 612.85 560.51 611.27 562.14 C 604.84 568.62 598.16 574.86 592.09 581.67 C 592.72 582.85 593.35 584.04 593.99 585.24 C 591.75 586.91 589.58 588.66 587.52 590.54 C 596.38 591.31 605.28 590.56 614.16 591.00 C 614.23 593.99 614.30 596.99 614.36 600.00 L 613.02 600.00 C 612.94 597.44 612.85 594.89 612.78 592.35 C 606.85 592.33 600.92 592.24 594.99 592.34 C 574.35 593.64 553.66 592.74 532.99 593.01 C 519.35 593.44 505.76 591.85 492.12 592.32 C 491.95 594.87 491.78 597.43 491.62 600.00 L 490.09 600.00 C 490.10 597.65 490.10 595.30 490.11 592.96 C 465.78 592.53 441.43 592.97 417.10 592.76 C 416.68 571.84 416.83 550.91 417.03 529.99 C 423.96 529.78 430.89 530.00 437.81 529.79 C 431.94 517.87 426.11 505.92 419.92 494.17 C 418.34 494.32 416.77 494.47 415.20 494.63 C 414.59 490.06 413.91 485.51 413.11 480.98 C 403.71 480.64 394.29 480.68 384.90 480.98 C 384.12 485.44 383.47 489.91 382.89 494.40 C 381.33 494.39 379.77 494.33 378.22 494.50 C 376.93 495.88 376.12 497.62 375.27 499.29 C 370.41 509.59 365.00 519.61 360.14 529.91 C 371.44 530.35 382.74 529.75 394.05 530.13 C 394.41 547.76 394.04 565.40 394.28 583.04 C 394.37 586.25 394.05 589.47 393.37 592.62 C 392.47 582.46 393.46 572.24 392.91 562.06 C 361.61 561.88 330.30 561.93 298.99 562.09 C 297.21 562.15 295.53 561.54 293.98 560.73 C 326.94 560.69 359.92 560.78 392.89 560.74 C 393.14 550.91 393.17 541.07 392.85 531.25 C 364.91 531.17 336.96 531.24 309.02 531.21 C 304.00 531.20 298.95 531.64 293.96 530.95 C 295.94 530.48 297.95 530.05 300.00 529.96 C 319.55 529.91 339.11 530.34 358.65 529.82 C 363.99 519.39 368.98 508.80 374.43 498.43 C 375.28 496.71 376.16 494.99 376.63 493.13 C 375.64 492.00 374.50 491.04 373.41 490.04 C 376.44 487.13 379.39 484.12 382.18 480.98 C 374.11 480.62 366.03 480.85 357.96 480.71 C 355.75 480.89 353.00 480.45 351.39 482.35 C 348.67 485.21 346.48 488.52 343.95 491.55 C 342.64 490.81 341.37 489.98 339.97 489.46 C 338.24 489.66 336.63 490.39 335.00 490.97 C 335.86 490.15 336.73 489.33 337.52 488.45 C 339.22 486.98 338.48 484.56 338.67 482.60 C 340.32 482.30 341.98 482.01 343.65 481.72 C 342.75 481.08 341.85 480.45 340.96 479.83 C 340.89 459.23 340.78 438.63 341.01 418.03 C 350.01 417.69 359.02 417.99 368.03 417.89 C 397.66 417.97 427.31 417.73 456.94 418.01 C 457.27 431.34 457.08 444.68 457.05 458.01 C 456.78 465.55 458.62 473.16 456.78 480.62 C 453.41 480.76 450.06 480.93 446.70 481.13 C 449.05 481.98 451.40 482.83 453.77 483.67 C 453.33 485.15 452.90 486.63 452.48 488.12 C 457.77 492.36 463.48 496.04 468.92 500.08 C 475.47 504.77 481.84 509.73 488.67 514.02 C 488.90 496.62 488.46 479.21 488.88 461.82 C 494.01 461.63 499.14 461.67 504.28 461.53 C 501.00 458.43 496.51 457.46 492.71 455.29 C 490.55 452.67 493.13 449.68 494.43 447.35 C 490.62 441.17 486.44 435.20 483.24 428.67 C 478.54 420.01 475.42 410.62 472.86 401.15 C 470.91 393.24 469.55 385.01 470.57 376.86 C 471.75 367.15 474.54 357.74 477.54 348.46 C 480.96 337.70 486.40 327.75 492.00 318.00 C 494.16 314.39 493.39 310.05 494.10 306.08 C 495.44 304.80 497.17 304.06 498.78 303.17 C 488.93 302.96 479.08 303.44 469.25 302.88 C 469.07 294.95 469.54 287.02 469.11 279.10 C 469.53 279.29 470.38 279.68 470.81 279.88 C 470.86 287.12 470.59 294.38 471.07 301.61 C 515.31 301.70 559.55 301.63 603.78 301.65 C 603.96 285.20 603.96 268.75 603.76 252.30 C 559.52 252.18 515.28 252.18 471.04 252.30 C 470.70 256.25 470.78 260.23 471.49 264.14 C 470.90 264.55 469.71 265.36 469.12 265.77 C 469.59 250.66 468.92 235.52 469.41 220.41 Z" />
<path fill="#feffff" d=" M 471.02 221.97 C 491.00 221.54 510.99 221.92 530.98 221.78 C 555.25 221.94 579.54 221.53 603.81 221.97 C 603.93 231.64 603.98 241.31 603.81 250.97 C 559.53 250.96 515.25 251.13 470.98 250.89 C 470.74 241.25 470.69 231.60 471.02 221.97 Z" />
<path fill="#efefef" d=" M 324.51 229.72 C 325.57 230.26 326.64 230.80 327.71 231.34 C 328.75 230.88 329.79 230.41 330.86 230.03 C 332.54 232.70 332.10 236.06 332.57 239.06 C 331.97 239.03 330.78 238.96 330.19 238.92 C 330.05 236.60 329.92 234.29 329.79 231.97 C 328.86 232.37 327.93 232.77 327.00 233.18 C 327.15 235.11 327.30 237.04 327.47 238.98 C 326.48 238.99 325.49 239.00 324.51 239.01 C 324.92 235.93 324.91 232.81 324.51 229.72 Z" />
<path fill="#efefef" d=" M 628.14 230.27 C 661.00 230.07 693.87 230.12 726.73 230.27 C 726.91 251.14 726.87 272.02 726.79 292.90 C 704.51 293.45 682.21 292.96 659.93 293.12 C 649.28 292.99 638.64 293.29 628.00 293.03 C 627.76 272.11 627.99 251.19 628.14 230.27 Z" />
<path fill="#efefef" d=" M 750.11 230.21 C 766.74 230.13 783.37 230.18 800.00 230.20 L 800.00 231.95 C 783.78 231.73 767.54 231.58 751.32 232.01 C 751.38 241.63 751.31 251.25 751.37 260.87 C 767.57 261.23 783.79 260.88 800.00 261.00 L 800.00 262.04 C 783.82 262.56 767.63 261.88 751.45 262.41 C 751.25 272.10 751.33 281.81 751.48 291.51 C 767.65 291.89 783.83 291.49 800.00 291.67 L 800.00 293.17 C 792.43 293.15 784.87 292.94 777.31 293.29 C 775.13 297.55 772.99 301.84 770.77 306.08 C 767.83 303.92 765.26 301.32 763.12 298.38 C 766.52 296.74 769.91 295.07 773.24 293.26 C 765.51 292.89 757.77 293.41 750.04 292.92 C 749.80 272.02 749.71 251.11 750.11 230.21 Z" />
<path fill="#feffff" d=" M 629.82 231.96 C 649.90 231.53 669.99 231.94 690.07 231.79 C 701.74 231.92 713.43 231.51 725.10 232.00 C 725.38 241.61 725.41 251.25 725.05 260.86 C 693.32 261.17 661.58 260.96 629.85 260.93 C 629.36 251.29 629.46 241.61 629.82 231.96 Z" />
<path fill="#feffff" d=" M 751.32 232.01 C 767.54 231.58 783.78 231.73 800.00 231.95 L 800.00 261.00 C 783.79 260.88 767.57 261.23 751.37 260.87 C 751.31 251.25 751.38 241.63 751.32 232.01 Z" />
<path fill="#feffff" d=" M 471.04 252.30 C 515.28 252.18 559.52 252.18 603.76 252.30 C 603.96 268.75 603.96 285.20 603.78 301.65 C 559.55 301.63 515.31 301.70 471.07 301.61 C 470.59 294.38 470.86 287.12 470.81 279.88 C 472.42 280.00 474.04 280.04 475.67 280.12 C 477.20 278.77 479.82 277.46 479.37 275.01 C 479.40 271.92 475.97 270.80 473.42 270.83 C 472.27 270.10 471.13 269.36 470.01 268.60 C 472.30 266.05 475.92 267.01 478.82 267.74 C 478.79 267.08 478.74 265.76 478.71 265.10 C 476.44 264.08 473.95 263.74 471.49 264.14 C 470.78 260.23 470.70 256.25 471.04 252.30 Z" />
<path fill="#000000" d=" M 455.41 257.00 C 455.97 257.00 457.10 257.00 457.66 257.00 C 457.66 264.70 457.66 272.39 457.66 280.09 C 457.02 280.00 455.76 279.82 455.12 279.73 C 455.67 275.92 455.40 272.06 455.42 268.23 C 455.39 264.49 455.41 260.74 455.41 257.00 Z" />
<path fill="#000000" d=" M 300.40 258.01 C 306.15 257.99 311.91 258.00 317.67 258.00 C 317.67 258.75 317.67 260.25 317.67 260.99 C 315.24 261.00 312.81 261.00 310.38 261.01 C 310.39 267.34 310.38 273.67 310.39 280.00 C 309.71 280.00 308.36 280.00 307.68 280.00 C 307.68 273.67 307.68 267.34 307.69 261.01 C 305.26 261.00 302.83 261.00 300.40 260.99 C 300.40 260.25 300.40 258.75 300.40 258.01 Z" />
<path fill="#000000" d=" M 359.32 257.63 C 364.37 257.62 364.90 263.59 367.85 266.55 C 369.61 263.72 371.32 260.87 373.01 258.00 C 373.72 258.00 375.14 258.00 375.85 258.00 C 373.53 261.56 371.33 265.20 369.11 268.82 C 371.31 272.56 373.54 276.29 375.82 280.00 C 375.09 280.03 373.63 280.09 372.90 280.12 C 371.07 277.09 369.34 274.02 367.44 271.04 C 364.82 274.20 364.10 280.22 359.13 280.32 C 361.38 276.49 363.87 272.81 366.11 268.97 C 365.81 268.47 365.19 267.47 364.89 266.97 C 363.02 263.86 361.12 260.78 359.32 257.63 Z" />
<path fill="#171717" d=" M 401.88 258.05 C 402.67 258.03 404.26 257.99 405.05 257.97 C 405.05 258.73 405.05 260.27 405.05 261.03 C 404.26 261.01 402.67 260.97 401.88 260.95 C 401.88 260.23 401.88 258.77 401.88 258.05 Z" />
<path fill="#171717" d=" M 461.87 258.06 C 462.67 258.04 464.25 257.98 465.05 257.96 C 465.05 258.73 465.05 260.27 465.05 261.04 C 464.26 261.02 462.67 260.96 461.87 260.94 C 461.87 260.22 461.87 258.78 461.87 258.06 Z" />
<path fill="#000000" d=" M 351.46 259.00 C 352.07 259.00 353.27 259.00 353.88 259.00 C 353.87 260.65 353.87 262.30 353.88 263.96 C 355.54 263.98 357.21 264.00 358.89 264.02 C 358.89 264.76 358.89 266.25 358.88 266.99 C 357.21 266.99 355.53 267.00 353.86 267.00 C 353.85 270.27 353.76 273.56 354.20 276.81 C 355.94 276.88 357.68 276.77 359.42 276.62 C 359.04 277.75 358.64 278.88 358.23 280.00 C 356.78 280.01 355.34 280.03 353.90 280.05 C 350.00 277.12 351.77 271.85 351.39 267.71 C 350.24 266.68 349.14 265.62 348.04 264.55 C 346.47 267.08 344.70 269.48 342.96 271.90 C 344.91 274.57 346.77 277.31 348.81 279.93 L 348.08 279.98 C 347.45 280.01 346.19 280.07 345.56 280.10 C 344.26 277.96 342.80 275.91 341.40 273.84 C 339.35 276.41 338.18 280.69 334.10 280.29 C 336.09 277.52 338.13 274.80 340.09 272.01 C 338.19 269.28 336.27 266.56 334.21 263.95 C 335.07 263.97 336.78 264.01 337.63 264.03 C 338.93 266.05 340.24 268.06 341.52 270.10 C 343.05 267.99 344.50 265.80 346.36 263.96 C 347.99 264.05 349.64 264.12 351.28 264.19 C 351.36 262.46 351.41 260.73 351.46 259.00 Z" />
<path fill="#000000" d=" M 498.40 259.01 C 499.02 259.01 500.26 259.00 500.88 259.00 C 500.87 260.63 500.87 262.26 500.87 263.89 C 502.62 263.97 504.37 263.99 506.13 264.12 C 506.12 264.81 506.11 266.20 506.10 266.90 C 504.35 266.98 502.61 267.05 500.88 267.10 C 500.94 270.00 500.64 272.94 501.07 275.83 C 501.83 277.95 504.63 276.81 506.13 276.33 C 505.87 277.56 505.62 278.79 505.34 280.02 C 503.89 280.01 502.45 280.01 501.02 280.03 C 496.77 277.27 498.87 271.68 498.41 267.49 C 496.30 267.32 496.49 265.43 496.37 263.88 C 496.88 263.91 497.90 263.95 498.42 263.98 C 498.40 262.32 498.40 260.66 498.40 259.01 Z" />
<path fill="#efefef" d=" M 543.50 259.00 C 545.89 259.01 548.33 258.84 550.70 259.31 C 555.11 261.99 555.01 268.93 550.71 271.65 C 548.33 272.17 545.87 272.02 543.46 272.07 C 544.15 267.74 544.13 263.34 543.50 259.00 Z" />
<path fill="#feffff" d=" M 546.15 259.74 C 547.63 260.23 549.30 260.39 550.59 261.34 C 552.58 263.64 552.48 267.28 550.70 269.66 C 549.33 270.57 547.65 270.80 546.13 271.29 C 545.92 267.44 545.93 263.59 546.15 259.74 Z" />
<path fill="#feffff" d=" M 629.39 262.28 C 661.25 262.17 693.11 262.25 724.98 262.25 C 725.49 271.52 725.29 280.82 725.16 290.09 C 725.46 292.00 723.21 291.56 722.08 291.69 C 691.18 291.55 660.27 291.70 629.37 291.63 C 629.32 281.84 629.35 272.06 629.39 262.28 Z" />
<path fill="#feffff" d=" M 751.45 262.41 C 767.63 261.88 783.82 262.56 800.00 262.04 L 800.00 291.67 C 783.83 291.49 767.65 291.89 751.48 291.51 C 751.33 281.81 751.25 272.10 751.45 262.41 Z" />
<path fill="#000000" d=" M 324.33 264.00 C 325.79 263.99 327.25 263.99 328.72 263.98 C 331.99 265.33 333.44 268.49 333.34 271.91 C 329.29 272.07 325.24 271.92 321.19 272.09 C 321.87 277.74 328.64 278.05 332.73 276.00 C 332.72 276.69 332.72 278.06 332.72 278.75 C 330.10 279.98 327.26 280.18 324.42 280.01 C 321.23 278.63 318.73 275.69 319.13 272.02 C 318.72 268.37 321.27 265.52 324.33 264.00 Z" />
<path fill="#000000" d=" M 385.30 263.82 C 385.97 263.91 387.32 264.09 387.99 264.17 C 389.71 268.03 390.68 272.18 392.40 276.03 C 394.81 272.53 395.29 268.11 397.18 264.34 C 397.83 264.19 399.14 263.90 399.79 263.75 C 397.91 269.08 395.85 274.36 393.70 279.58 C 393.22 279.78 392.26 280.18 391.78 280.37 C 389.30 275.00 387.35 269.38 385.30 263.82 Z" />
<path fill="#000000" d=" M 402.41 264.00 C 402.97 264.01 404.11 264.01 404.67 264.02 C 404.67 269.38 404.66 274.74 404.66 280.10 C 404.10 280.06 402.96 279.97 402.39 279.93 C 402.43 274.62 402.39 269.31 402.41 264.00 Z" />
<path fill="#000000" d=" M 408.77 266.57 C 410.89 263.15 415.63 263.38 418.73 265.23 C 418.71 265.99 418.68 267.52 418.66 268.28 C 418.20 267.95 417.29 267.30 416.84 266.98 C 414.49 267.12 411.62 266.31 410.16 268.72 C 411.25 269.47 412.34 270.22 413.44 270.96 C 414.48 270.97 415.52 270.99 416.57 271.01 C 417.64 272.17 419.59 273.06 419.36 274.96 C 419.84 277.41 417.33 278.82 415.69 280.06 C 413.10 280.19 410.49 280.01 408.16 278.78 C 408.15 278.09 408.12 276.71 408.11 276.02 C 410.67 277.18 413.49 276.96 416.23 276.98 C 416.50 276.18 416.76 275.40 417.03 274.61 C 415.22 273.65 413.33 272.86 411.25 272.90 C 409.03 271.73 407.21 268.98 408.77 266.57 Z" />
<path fill="#000000" d=" M 421.82 268.03 C 421.82 265.89 421.66 263.42 424.51 263.77 C 424.93 268.21 423.50 273.04 425.72 277.15 C 428.00 277.14 430.24 276.77 432.32 275.80 C 432.46 271.87 432.39 267.93 432.40 264.00 C 433.02 264.00 434.26 264.00 434.88 264.00 C 434.92 269.28 434.70 274.57 435.15 279.84 C 434.47 279.89 433.11 279.99 432.43 280.05 C 432.41 279.47 432.37 278.31 432.36 277.73 C 431.09 278.48 429.83 279.25 428.57 280.02 C 427.43 280.01 426.30 280.00 425.17 280.00 C 420.96 277.35 422.54 272.14 421.82 268.03 Z" />
<path fill="#000000" d=" M 439.43 265.47 C 440.04 265.09 441.26 264.32 441.87 263.93 C 445.13 263.74 448.81 263.82 450.76 266.91 C 450.97 271.20 450.83 275.51 450.90 279.80 C 450.31 279.91 449.11 280.12 448.52 280.23 C 448.55 279.52 448.63 278.10 448.67 277.39 C 446.52 278.99 444.12 280.23 441.39 280.30 C 438.82 278.41 436.89 274.85 438.89 271.85 C 441.42 269.22 445.42 268.99 448.86 268.76 C 448.54 268.34 447.90 267.50 447.58 267.08 C 445.65 267.05 443.72 267.00 441.80 266.99 C 441.27 267.36 440.20 268.09 439.67 268.46 C 439.61 267.71 439.49 266.22 439.43 265.47 Z" />
<path fill="#000000" d=" M 462.41 264.00 C 462.97 264.00 464.10 264.00 464.66 264.00 C 464.66 269.33 464.66 274.66 464.66 280.00 C 464.10 280.00 462.97 280.00 462.41 280.00 C 462.41 274.66 462.41 269.33 462.41 264.00 Z" />
<path fill="#000000" d=" M 471.49 264.14 C 473.95 263.74 476.44 264.08 478.71 265.10 C 478.74 265.76 478.79 267.08 478.82 267.74 C 475.92 267.01 472.30 266.05 470.01 268.60 C 471.13 269.36 472.27 270.10 473.42 270.83 C 475.97 270.80 479.40 271.92 479.37 275.01 C 479.82 277.46 477.20 278.77 475.67 280.12 C 474.04 280.04 472.42 280.00 470.81 279.88 C 470.38 279.68 469.53 279.29 469.11 279.10 L 468.16 278.60 C 468.13 278.00 468.08 276.79 468.05 276.18 C 470.70 276.94 473.45 277.05 476.19 277.11 C 476.47 276.33 476.75 275.55 477.05 274.77 C 475.99 274.18 474.94 273.59 473.90 272.99 C 473.23 273.02 471.89 273.06 471.22 273.08 C 468.62 271.51 467.45 268.47 469.12 265.77 C 469.71 265.36 470.90 264.55 471.49 264.14 Z" />
<path fill="#000000" d=" M 482.51 265.16 C 484.87 263.65 487.69 263.94 490.36 264.05 C 491.35 264.70 492.35 265.34 493.38 265.96 C 494.30 270.59 493.74 275.33 493.87 280.01 C 493.28 280.00 492.10 279.98 491.51 279.97 C 491.54 279.30 491.60 277.94 491.64 277.27 C 489.58 278.96 487.26 280.49 484.46 280.07 C 483.54 279.31 482.62 278.57 481.69 277.84 C 481.24 275.72 480.53 273.15 482.25 271.40 C 484.97 269.31 488.54 268.79 491.89 268.93 C 491.56 268.47 490.90 267.55 490.58 267.09 C 487.85 267.02 485.02 266.80 482.52 268.09 C 482.51 267.36 482.51 265.90 482.51 265.16 Z" />
<path fill="#000000" d=" M 510.77 264.75 C 512.44 263.61 514.53 264.06 516.43 263.92 C 520.48 266.01 522.33 270.87 520.71 275.15 C 519.83 278.90 515.68 280.66 512.12 280.08 C 506.07 277.75 505.14 267.98 510.77 264.75 Z" />
<path fill="#000000" d=" M 524.19 264.07 C 524.81 264.03 526.05 263.95 526.67 263.90 C 526.68 264.50 526.69 265.68 526.70 266.28 C 528.55 265.17 530.39 263.88 532.64 263.75 C 532.65 264.56 532.67 266.18 532.67 266.99 C 531.56 266.99 530.46 267.00 529.36 267.02 C 528.45 267.61 527.56 268.20 526.66 268.80 C 526.68 272.53 526.65 276.26 526.66 279.99 C 526.05 280.00 524.83 280.00 524.22 280.00 C 524.21 274.69 524.22 269.38 524.19 264.07 Z" />
<path fill="#feffff" d=" M 320.96 268.92 C 323.17 266.58 326.31 266.91 329.23 266.97 C 329.81 267.64 330.40 268.31 330.99 268.98 C 327.64 269.01 324.30 269.04 320.96 268.92 Z" />
<path fill="#feffff" d=" M 510.46 268.20 C 512.71 266.48 516.59 266.27 518.10 269.07 C 519.06 271.85 518.69 275.25 516.12 277.02 C 514.78 277.02 513.44 277.02 512.11 277.05 C 509.15 275.01 509.18 271.21 510.46 268.20 Z" />
<path fill="#feffff" d=" M 86.30 269.27 C 121.42 268.98 156.56 269.05 191.68 269.25 C 191.66 278.81 191.72 288.36 191.64 297.92 C 187.10 298.27 182.54 298.19 177.99 298.15 C 153.68 298.20 129.36 298.18 105.04 298.16 C 98.81 298.12 92.56 298.38 86.34 297.94 C 86.37 288.38 86.31 278.83 86.30 269.27 Z" />
<path fill="#feffff" d=" M 440.13 274.91 C 441.98 272.05 445.45 271.72 448.54 271.97 C 448.55 273.22 448.58 274.49 448.61 275.75 C 446.55 276.77 444.31 277.16 442.03 277.09 C 441.56 276.55 440.61 275.45 440.13 274.91 Z" />
<path fill="#feffff" d=" M 483.12 274.89 C 484.14 273.65 485.51 272.82 486.85 271.99 C 488.40 271.99 489.96 272.00 491.52 272.00 C 491.55 273.25 491.58 274.49 491.62 275.74 C 489.57 276.76 487.32 277.16 485.04 277.09 C 484.56 276.54 483.60 275.44 483.12 274.89 Z" />
<path fill="#ffffff" d=" M 765.49 298.96 C 768.36 297.04 771.53 295.62 774.89 294.79 C 773.64 297.94 772.02 300.92 770.11 303.70 C 768.53 302.15 766.99 300.57 765.49 298.96 Z" />
<path fill="#feffff" d=" M 86.36 300.07 C 90.55 299.72 94.76 299.73 98.97 299.81 C 125.64 299.76 152.32 299.82 179.00 299.78 C 183.22 299.71 187.44 299.71 191.66 300.01 C 191.70 309.60 191.67 319.19 191.69 328.78 C 156.58 328.92 121.46 328.96 86.35 328.77 C 86.31 319.20 86.33 309.64 86.36 300.07 Z" />
<path fill="#feffff" d=" M 347.98 300.00 C 366.64 299.42 385.33 300.00 404.00 299.78 C 420.27 299.86 436.55 299.63 452.82 299.94 C 452.92 309.57 452.87 319.19 452.82 328.82 C 417.85 328.92 382.89 328.92 347.93 328.82 C 347.69 319.22 347.63 309.60 347.98 300.00 Z" />
<path fill="#ffffff" d=" M 504.10 303.19 C 512.05 303.06 520.00 303.08 527.94 303.17 C 527.80 314.80 527.96 326.44 527.83 338.07 C 525.26 337.97 522.88 337.05 520.95 335.37 C 520.46 335.95 519.98 336.54 519.51 337.13 C 519.77 339.87 519.76 342.69 520.64 345.33 C 521.64 345.70 522.65 346.02 523.69 346.32 C 522.31 343.60 521.69 340.61 522.18 337.58 C 525.13 341.48 526.54 346.23 528.12 350.79 C 515.04 351.09 501.95 350.64 488.87 351.00 C 488.44 368.66 488.86 386.34 488.65 404.01 C 488.58 407.26 488.74 410.52 489.05 413.77 C 502.08 413.95 515.11 413.51 528.14 413.96 C 528.03 425.30 527.73 436.65 527.85 448.01 C 524.38 448.89 519.48 446.64 517.23 450.28 C 516.50 452.31 516.70 454.92 518.67 456.19 C 520.89 458.01 523.59 455.91 525.87 455.26 C 526.60 457.38 527.31 459.51 528.01 461.65 C 521.18 461.65 514.35 461.83 507.52 461.53 C 506.15 457.57 506.27 453.36 505.65 449.28 C 504.22 446.57 501.05 448.88 499.04 449.57 C 494.16 445.36 491.07 439.62 487.76 434.20 C 483.11 426.03 478.95 417.49 476.48 408.40 C 473.85 400.16 471.54 391.67 471.73 382.95 C 471.55 373.62 474.21 364.59 476.66 355.68 C 480.39 342.51 486.27 330.03 493.39 318.37 C 495.51 314.53 500.60 314.65 503.59 311.84 C 504.03 308.98 503.98 306.07 504.10 303.19 Z" />
<path fill="#ffffff" d=" M 529.42 303.38 C 534.59 302.96 539.79 303.04 544.97 303.21 C 543.34 305.82 541.71 308.43 540.07 311.04 C 541.87 313.80 544.13 316.29 545.46 319.32 C 546.23 325.11 545.94 331.05 545.03 336.81 C 543.66 337.04 542.31 337.27 540.96 337.51 C 541.57 342.05 543.34 346.32 544.12 350.83 C 539.50 350.93 534.89 350.92 530.28 350.81 C 531.59 346.41 533.04 342.05 533.97 337.55 C 532.40 337.26 530.82 337.09 529.27 336.80 C 528.96 325.67 528.86 314.51 529.42 303.38 Z" />
<path fill="#fefefe" d=" M 548.77 344.99 C 549.70 341.64 552.04 338.98 555.34 337.80 C 553.91 340.81 551.23 342.87 548.77 344.99 Z" />
<path fill="#efefef" d=" M 719.32 346.32 C 721.00 344.41 723.01 342.81 725.29 341.64 C 722.89 345.03 719.72 347.75 716.91 350.77 C 720.99 350.86 725.07 350.90 729.16 350.99 C 729.62 364.01 729.20 377.04 729.35 390.06 C 729.17 397.95 729.66 405.86 729.05 413.74 C 699.03 413.87 669.02 413.73 639.01 413.82 C 638.40 392.89 638.72 371.91 638.85 350.97 C 663.24 350.74 687.64 350.94 712.03 350.87 C 715.31 351.27 717.26 348.32 719.32 346.32 Z" />
<path fill="#efefef" d=" M 752.91 351.01 C 768.60 350.73 784.30 350.84 800.00 350.96 L 800.00 352.07 C 784.77 352.64 769.52 352.17 754.29 352.34 C 754.09 362.13 754.08 371.93 754.27 381.72 C 769.51 381.73 784.75 381.80 800.00 381.68 L 800.00 382.96 C 784.74 383.15 769.49 382.80 754.23 383.10 C 754.12 392.72 754.17 402.34 754.20 411.96 C 769.46 412.48 784.73 412.00 800.00 412.21 L 800.00 413.88 C 796.39 413.77 792.78 413.80 789.17 413.94 C 788.72 418.54 788.10 423.13 787.27 427.68 C 785.82 427.27 784.37 426.87 782.94 426.47 C 781.47 429.20 780.07 431.97 778.82 434.81 C 774.79 443.87 769.88 452.52 766.01 461.66 C 773.06 461.76 780.11 461.46 787.16 461.85 C 787.53 482.60 787.42 503.37 787.17 524.13 C 765.10 524.57 743.02 524.24 720.95 524.18 C 712.39 523.39 703.82 522.66 695.22 523.28 C 697.14 524.76 699.99 525.69 700.95 528.04 C 700.99 532.47 699.42 537.18 701.71 541.35 C 710.37 560.40 717.17 580.22 723.94 600.00 L 722.32 600.00 C 716.19 580.12 708.52 560.76 700.54 541.56 C 699.06 536.87 693.92 535.42 690.95 531.99 C 690.79 529.03 691.29 526.10 691.64 523.18 C 677.54 523.11 663.43 523.03 649.33 523.26 C 648.67 526.33 648.02 529.40 647.38 532.47 C 643.64 533.54 639.48 533.85 636.33 536.31 C 629.44 542.27 624.02 549.84 616.59 555.19 C 621.47 547.96 628.56 542.66 634.41 536.27 C 638.00 532.72 637.22 527.00 640.34 523.12 C 632.84 523.02 625.33 523.30 617.83 523.01 C 617.45 510.33 617.75 497.64 617.67 484.95 C 617.76 476.71 617.36 468.46 617.95 460.24 C 651.64 460.18 685.32 460.22 719.00 460.23 C 725.07 460.26 731.20 459.74 737.21 460.90 C 743.73 462.18 750.39 461.50 756.99 461.72 C 759.39 461.68 761.87 461.86 764.21 461.16 C 766.45 458.17 767.70 454.61 769.39 451.31 C 773.64 442.80 777.69 434.19 781.63 425.54 C 780.37 424.68 779.12 423.83 777.88 422.98 C 780.70 420.02 783.52 417.05 786.26 414.01 C 775.19 413.43 764.10 414.05 753.02 413.73 C 752.34 404.49 752.89 395.23 752.70 385.99 C 752.82 374.33 752.43 362.66 752.91 351.01 Z" />
<path fill="#feffff" d=" M 490.26 352.39 C 521.72 352.27 553.18 352.38 584.64 352.34 C 584.77 362.12 584.72 371.90 584.66 381.68 C 553.20 381.77 521.73 381.75 490.26 381.71 C 490.08 371.93 490.07 362.16 490.26 352.39 Z" />
<path fill="#feffff" d=" M 640.25 352.33 C 669.43 352.35 698.60 352.29 727.78 352.34 C 728.00 362.13 727.96 371.93 727.80 381.73 C 698.63 381.73 669.45 381.77 640.27 381.69 C 640.01 371.91 640.11 362.12 640.25 352.33 Z" />
<path fill="#feffff" d=" M 754.29 352.34 C 769.52 352.17 784.77 352.64 800.00 352.07 L 800.00 381.68 C 784.75 381.80 769.51 381.73 754.27 381.72 C 754.08 371.93 754.09 362.13 754.29 352.34 Z" />
<path fill="#ffffff" d=" M 586.23 362.92 C 593.97 362.78 601.72 366.45 606.17 372.85 C 611.40 381.35 608.30 393.73 599.28 398.29 C 598.66 396.93 598.05 395.57 597.45 394.22 C 593.70 396.47 590.14 399.04 586.32 401.17 C 585.99 388.42 586.17 375.67 586.23 362.92 Z" />
<path fill="#feffff" d=" M 490.21 383.09 C 521.70 382.97 553.19 382.90 584.68 383.14 C 584.66 392.74 584.82 402.34 584.70 411.94 C 567.79 412.51 550.87 411.99 533.95 412.17 C 519.37 412.09 504.78 412.41 490.20 412.00 C 490.11 402.36 490.13 392.72 490.21 383.09 Z" />
<path fill="#feffff" d=" M 640.22 383.05 C 669.42 382.97 698.62 382.94 727.82 383.07 C 727.91 392.71 728.01 402.35 727.78 411.99 C 702.19 412.45 676.59 411.96 651.00 412.19 C 647.39 412.24 643.78 412.15 640.19 411.97 C 640.08 402.33 640.16 392.69 640.22 383.05 Z" />
<path fill="#feffff" d=" M 754.23 383.10 C 769.49 382.80 784.74 383.15 800.00 382.96 L 800.00 412.21 C 784.73 412.00 769.46 412.48 754.20 411.96 C 754.17 402.34 754.12 392.72 754.23 383.10 Z" />
<path fill="#efefef" d=" M 562.49 389.95 C 565.85 390.02 570.50 389.08 572.09 393.01 C 574.34 396.43 572.31 400.33 569.92 403.01 C 567.42 403.00 564.93 403.00 562.45 403.01 C 563.17 398.68 563.19 394.28 562.49 389.95 Z" />
<path fill="#feffff" d=" M 565.17 390.69 C 566.66 391.19 568.36 391.37 569.65 392.36 C 571.55 394.68 571.46 398.32 569.61 400.65 C 568.34 401.67 566.59 401.74 565.08 402.21 C 564.92 398.37 564.94 394.52 565.17 390.69 Z" />
<path fill="#feffff" d=" M 232.37 400.11 C 240.89 399.42 249.44 399.89 257.98 399.78 C 283.22 399.94 308.47 399.51 333.71 400.01 C 333.67 409.63 333.65 419.26 333.70 428.89 C 299.92 429.10 266.13 429.06 232.35 428.89 C 232.30 419.29 232.29 409.70 232.37 400.11 Z" />
<path fill="#ffffff" d=" M 530.14 414.00 C 535.04 413.66 539.96 413.68 544.87 413.96 C 545.50 425.21 546.18 436.46 545.69 447.72 C 544.08 447.90 542.48 448.09 540.89 448.28 C 541.94 452.74 543.70 457.05 544.10 461.66 C 539.49 461.73 534.88 461.74 530.29 461.53 C 531.35 457.10 532.80 452.77 533.93 448.36 C 532.35 448.14 530.77 447.96 529.19 447.76 C 528.98 436.50 528.70 425.19 530.14 414.00 Z" />
<path fill="#ffffff" d=" M 789.17 413.94 C 792.78 413.80 796.39 413.77 800.00 413.88 L 800.00 600.00 L 723.94 600.00 C 717.17 580.22 710.37 560.40 701.71 541.35 C 699.42 537.18 700.99 532.47 700.95 528.04 C 699.99 525.69 697.14 524.76 695.22 523.28 C 703.82 522.66 712.39 523.39 720.95 524.18 C 743.02 524.24 765.10 524.57 787.17 524.13 C 787.42 503.37 787.53 482.60 787.16 461.85 C 780.11 461.46 773.06 461.76 766.01 461.66 C 769.88 452.52 774.79 443.87 778.82 434.81 C 780.07 431.97 781.47 429.20 782.94 426.47 C 784.37 426.87 785.82 427.27 787.27 427.68 C 788.10 423.13 788.72 418.54 789.17 413.94 Z" />
<path fill="#ffffff" d=" M 779.92 422.94 C 782.02 420.28 784.40 417.84 787.10 415.77 C 787.17 419.15 786.96 422.53 786.50 425.89 C 784.20 425.14 782.01 424.13 779.92 422.94 Z" />
<path fill="#efefef" d=" M 5.03 417.95 C 50.70 417.80 96.38 417.93 142.05 417.89 C 149.27 418.00 156.51 417.63 163.73 418.13 C 163.77 438.96 163.97 459.79 163.61 480.61 C 137.66 481.19 111.67 480.34 85.72 481.03 C 87.07 483.44 88.68 485.70 89.92 488.17 C 89.08 492.11 84.79 494.73 85.04 499.05 C 84.90 504.85 84.96 510.66 85.14 516.46 C 86.67 516.68 88.20 516.91 89.74 517.15 C 88.37 521.40 86.76 525.58 85.21 529.77 C 109.12 530.09 133.05 529.64 156.97 530.00 C 157.33 542.00 157.03 554.01 157.14 566.02 C 157.04 574.92 157.39 583.83 156.90 592.72 C 109.60 592.86 62.30 592.75 15.00 592.80 C 13.86 592.60 11.32 593.05 11.71 591.08 C 11.74 570.74 11.45 550.36 11.88 530.02 C 35.63 529.64 59.39 530.03 83.14 529.80 C 82.19 525.51 80.41 521.49 78.27 517.67 C 76.84 515.55 77.97 513.06 78.37 510.82 C 78.82 512.30 79.19 513.82 79.79 515.26 C 80.89 516.07 82.26 516.37 83.53 516.83 C 83.85 510.60 84.02 504.34 83.61 498.12 C 82.73 494.49 80.07 491.64 78.39 488.37 C 79.94 485.94 81.46 483.49 82.94 481.02 C 56.99 480.43 31.02 481.03 5.06 480.72 C 4.59 472.49 5.05 464.24 4.88 456.00 C 5.03 443.32 4.62 430.63 5.03 417.95 Z" />
<path fill="#feffff" d=" M 6.37 419.39 C 58.22 419.26 110.06 419.39 161.91 419.34 C 162.46 429.10 162.38 438.91 161.94 448.68 C 110.08 448.81 58.20 448.80 6.33 448.68 C 6.34 438.91 6.22 429.15 6.37 419.39 Z" />
<path fill="#feffff" d=" M 342.39 419.33 C 380.15 419.38 417.90 419.25 455.66 419.38 C 455.70 429.16 455.68 438.94 455.68 448.72 C 417.91 448.83 380.13 448.73 342.36 448.73 C 342.31 438.93 342.31 429.13 342.39 419.33 Z" />
<path fill="#feffff" d=" M 232.36 430.32 C 266.11 430.14 299.88 430.18 333.64 430.30 C 333.64 440.03 333.80 449.77 333.55 459.51 C 299.87 459.75 266.17 459.71 232.49 459.53 C 232.07 449.80 232.46 440.05 232.36 430.32 Z" />
<path fill="#feffff" d=" M 6.32 450.16 C 32.19 449.67 58.09 450.16 83.97 449.92 C 109.99 450.10 136.00 449.73 162.02 450.08 C 162.36 459.71 162.35 469.38 161.96 479.02 C 117.65 479.38 73.33 479.08 29.01 479.17 C 21.44 479.03 13.86 479.50 6.30 478.89 C 6.33 469.31 6.35 459.74 6.32 450.16 Z" />
<path fill="#feffff" d=" M 342.32 450.15 C 368.89 449.66 395.47 450.14 422.04 449.94 C 433.25 450.06 444.46 449.65 455.66 450.12 C 455.73 455.86 455.71 461.60 455.63 467.34 C 452.90 468.05 449.22 469.42 450.00 473.00 C 449.93 476.62 454.44 476.51 456.33 478.73 C 451.90 479.33 447.43 479.19 442.97 479.16 C 415.99 479.18 389.01 479.16 362.02 479.16 C 355.47 479.06 348.91 479.38 342.36 478.91 C 342.30 469.32 342.29 459.73 342.32 450.15 Z" />
<path fill="#ffffff" d=" M 518.69 452.02 C 520.56 452.61 525.31 450.66 524.88 453.75 C 523.68 454.64 522.37 455.36 521.09 456.13 C 520.28 454.75 519.47 453.39 518.69 452.02 Z" />
<path fill="#feffff" d=" M 619.15 461.97 C 650.71 461.63 682.29 461.71 713.85 461.92 C 713.99 465.25 714.07 468.60 713.64 471.92 C 712.60 478.24 714.53 484.55 713.82 490.90 C 682.28 491.09 650.73 491.04 619.18 490.92 C 619.04 481.27 619.11 471.62 619.15 461.97 Z" />
<path fill="#feffff" d=" M 490.23 463.20 C 493.77 463.06 497.32 463.03 500.88 463.13 C 500.53 465.87 500.55 468.67 501.61 471.27 C 502.39 468.63 502.41 465.88 502.15 463.17 C 529.65 463.08 557.16 463.00 584.67 463.22 C 584.75 472.80 584.73 482.38 584.72 491.95 C 562.81 492.45 540.87 492.03 518.95 492.18 C 509.37 492.09 499.79 492.35 490.23 492.01 C 490.52 486.78 488.92 481.07 491.41 476.21 C 489.58 472.10 490.08 467.56 490.23 463.20 Z" />
<path fill="#fdffff" d=" M 715.28 463.20 C 722.17 462.75 729.08 462.91 735.98 463.11 C 736.34 472.37 736.14 481.65 736.07 490.92 C 729.15 491.03 722.24 491.11 715.33 490.87 C 715.30 487.82 715.34 484.76 715.44 481.71 C 717.05 480.99 718.68 480.27 720.31 479.56 C 717.77 479.87 715.84 478.71 714.80 476.44 C 717.00 476.15 719.20 475.90 721.41 475.62 C 720.37 473.07 717.91 472.00 715.43 471.34 C 715.33 468.62 715.29 465.91 715.28 463.20 Z" />
<path fill="#feffff" d=" M 737.93 463.19 C 753.89 463.09 769.86 463.03 785.83 463.18 C 785.96 472.79 785.95 482.40 785.85 492.01 C 769.90 492.23 753.94 492.31 737.99 492.01 C 737.51 488.65 737.78 485.30 738.98 482.13 C 738.98 477.39 739.85 472.41 738.12 467.87 C 737.63 466.35 737.93 464.74 737.93 463.19 Z" />
<path fill="#efefef" d=" M 680.54 467.63 C 685.03 468.49 685.05 473.83 686.74 477.21 C 688.07 474.11 689.48 471.04 691.08 468.06 C 691.68 468.04 692.90 467.99 693.51 467.96 C 692.84 472.28 692.80 476.68 693.56 481.00 C 692.54 480.99 691.52 480.98 690.51 480.98 C 690.88 477.93 691.03 474.85 690.94 471.78 C 689.43 474.87 688.01 478.00 686.42 481.05 C 684.96 477.97 683.57 474.85 682.09 471.78 C 681.98 474.86 682.11 477.95 682.45 481.03 C 681.97 481.01 681.00 480.99 680.51 480.98 C 681.17 476.55 681.06 472.06 680.54 467.63 Z" />
<path fill="#feffff" d=" M 451.92 470.20 C 452.52 469.79 453.70 468.98 454.30 468.57 C 456.18 471.02 456.24 474.48 454.02 476.76 C 452.11 475.05 451.77 472.62 451.92 470.20 Z" />
<path fill="#ffffff" d=" M 415.77 481.02 C 423.72 480.87 431.80 480.20 439.68 481.25 C 442.91 484.51 444.87 488.79 447.85 492.29 C 449.03 491.28 450.24 490.29 451.43 489.29 C 461.76 496.34 471.71 503.92 481.96 511.08 C 484.16 512.75 486.82 514.02 488.44 516.33 C 488.88 518.91 488.78 521.54 488.87 524.15 C 493.73 524.66 499.34 523.10 503.42 526.53 C 506.64 528.98 510.20 531.00 513.18 533.76 C 513.90 535.41 513.60 537.31 513.72 539.07 C 513.59 556.31 513.77 573.55 513.64 590.79 C 505.87 590.93 498.09 590.93 490.33 590.80 C 490.16 570.53 490.63 550.25 490.11 529.99 C 473.18 529.56 456.23 530.25 439.31 529.68 C 433.08 517.46 427.03 505.15 420.90 492.89 C 422.16 492.05 423.48 491.32 424.75 490.49 C 421.85 487.24 418.64 484.29 415.77 481.02 Z" />
<path fill="#ffffff" d=" M 342.93 482.88 C 345.05 482.36 347.23 482.19 349.40 481.98 C 347.68 484.81 345.68 487.46 343.55 490.00 C 342.30 488.39 340.87 486.85 340.15 484.92 C 340.06 483.29 341.76 483.22 342.93 482.88 Z" />
<path fill="#ffffff" d=" M 442.71 481.91 C 446.04 482.39 449.28 483.35 452.32 484.80 C 451.02 486.70 449.64 488.54 448.19 490.33 C 446.03 487.75 443.87 485.11 442.71 481.91 Z" />
<path fill="#ffffff" d=" M 375.47 490.16 C 377.71 487.50 380.20 485.05 382.91 482.88 C 382.70 486.32 382.27 489.75 381.71 493.16 C 379.55 492.32 377.46 491.32 375.47 490.16 Z" />
<path fill="#ffffff" d=" M 415.06 482.81 C 417.76 484.99 420.23 487.46 422.48 490.11 C 420.54 491.23 418.58 492.32 416.60 493.38 C 415.77 489.91 415.22 486.38 415.06 482.81 Z" />
<path fill="#feffff" d=" M 619.26 492.28 C 650.76 492.18 682.27 492.21 713.78 492.25 C 714.02 502.05 713.92 511.85 713.81 521.65 C 682.27 521.70 650.74 521.62 619.21 521.70 C 619.14 511.89 618.94 502.08 619.26 492.28 Z" />
<path fill="#feffff" d=" M 490.20 494.00 C 509.80 493.50 529.42 493.94 549.03 493.79 C 560.93 493.98 572.84 493.48 584.73 493.98 C 584.80 503.59 584.66 513.20 584.73 522.80 C 558.48 523.04 532.23 522.77 505.98 522.95 C 499.60 523.73 494.50 518.87 490.36 514.73 C 489.81 507.85 490.30 500.91 490.20 494.00 Z" />
<path fill="#fdffff" d=" M 715.34 494.06 C 722.20 493.58 729.10 493.73 735.97 493.98 C 736.42 503.23 736.31 512.51 735.98 521.76 C 729.14 521.75 722.29 521.91 715.46 521.56 C 715.24 512.40 715.42 503.23 715.34 494.06 Z" />
<path fill="#feffff" d=" M 737.96 493.96 C 753.91 493.61 769.89 493.70 785.85 493.93 C 785.95 503.56 785.90 513.20 785.87 522.84 C 769.89 522.92 753.91 522.95 737.94 522.82 C 737.70 513.20 737.71 503.57 737.96 493.96 Z" />
<path fill="#f0f0f0" d=" M 562.48 500.01 C 565.39 500.26 569.27 498.97 571.30 501.74 C 573.58 504.43 573.63 508.64 571.24 511.28 C 569.25 514.04 565.40 512.74 562.52 513.03 C 563.13 508.71 563.19 504.32 562.48 500.01 Z" />
<path fill="#feffff" d=" M 565.10 500.72 C 566.62 501.20 568.31 501.38 569.65 502.35 C 571.46 504.69 571.58 508.31 569.66 510.64 C 568.36 511.64 566.64 511.75 565.13 512.24 C 564.91 508.40 564.90 504.56 565.10 500.72 Z" />
<path fill="#efefef" d=" M 15.88 517.07 C 18.17 516.46 20.50 516.04 22.85 515.78 C 22.34 517.54 22.21 519.50 21.21 521.09 C 20.15 521.76 19.00 522.27 17.88 522.84 C 20.27 523.22 22.66 523.63 25.04 524.03 C 24.96 521.32 24.79 518.62 24.50 515.93 C 25.13 515.99 26.41 516.12 27.05 516.18 C 27.30 518.98 27.37 521.79 27.38 524.60 C 26.10 525.16 24.83 525.74 23.55 526.30 C 21.47 525.66 19.36 525.08 17.24 524.56 C 16.66 522.08 16.22 519.58 15.88 517.07 Z" />
<path fill="#ffffff" d=" M 18.82 516.69 C 19.75 517.49 20.67 518.29 21.59 519.11 C 20.38 519.92 19.13 520.68 17.83 521.37 C 18.14 519.79 18.47 518.25 18.82 516.69 Z" />
<path fill="#feffff" d=" M 490.19 517.06 C 492.87 518.84 495.48 520.74 497.98 522.79 C 495.39 522.85 492.80 522.88 490.22 522.88 C 490.20 520.93 490.19 518.99 490.19 517.06 Z" />
<path fill="#efefef" d=" M 276.89 526.92 C 280.95 524.39 284.74 521.29 289.36 519.84 C 284.01 524.90 277.10 527.80 271.21 532.13 C 270.89 552.35 271.47 572.58 270.89 592.80 C 242.59 592.80 214.28 592.77 185.98 592.80 C 184.12 592.75 182.26 592.65 180.40 592.56 C 180.00 571.75 180.27 550.93 180.25 530.13 C 210.18 529.58 240.14 530.00 270.08 529.91 C 272.71 530.01 274.77 528.18 276.89 526.92 Z" />
<path fill="#feffff" d=" M 13.20 531.31 C 60.68 531.39 108.17 531.28 155.65 531.37 C 155.70 541.13 155.68 550.90 155.65 560.67 C 108.18 560.75 60.70 560.77 13.22 560.69 C 13.07 550.89 13.06 541.10 13.20 531.31 Z" />
<path fill="#feffff" d=" M 182.01 531.33 C 211.19 531.45 240.38 531.17 269.56 531.44 C 269.78 541.18 269.62 550.92 269.65 560.66 C 240.47 560.82 211.29 560.69 182.10 560.74 C 181.52 550.95 181.68 541.12 182.01 531.33 Z" />
<path fill="#feffff" d=" M 418.39 531.38 C 441.85 531.27 465.32 531.42 488.78 531.31 C 488.95 541.12 488.97 550.93 488.78 560.74 C 465.31 560.74 441.84 560.83 418.37 560.69 C 418.30 550.92 418.27 541.15 418.39 531.38 Z" />
<path fill="#feffff" d=" M 515.22 531.35 C 539.07 531.32 562.91 531.37 586.75 531.29 C 586.98 541.10 586.99 550.93 586.78 560.75 C 562.94 560.77 539.11 560.76 515.27 560.74 C 514.98 550.95 515.07 541.14 515.22 531.35 Z" />
<path fill="#f0f0f0" d=" M 451.51 537.97 C 453.97 537.98 456.42 538.01 458.88 538.02 C 461.50 540.83 463.51 545.25 460.68 548.67 C 458.92 552.09 454.64 550.84 451.54 551.03 C 452.10 546.69 452.12 542.30 451.51 537.97 Z" />
<path fill="#feffff" d=" M 454.17 538.77 C 457.09 539.06 460.12 540.69 460.07 544.04 C 460.69 547.70 457.40 550.02 454.14 550.29 C 453.93 546.45 453.94 542.60 454.17 538.77 Z" />
<path fill="#feffff" d=" M 13.18 562.09 C 60.67 561.98 108.17 561.88 155.67 562.12 C 155.72 571.71 155.59 581.30 155.69 590.89 C 134.81 591.57 113.90 590.93 93.01 591.18 C 66.40 591.03 39.79 591.40 13.18 591.04 C 13.06 581.39 13.05 571.73 13.18 562.09 Z" />
<path fill="#feffff" d=" M 181.92 562.09 C 211.17 561.97 240.42 561.85 269.66 562.17 C 269.64 571.75 269.75 581.33 269.66 590.91 C 253.80 591.51 237.91 591.01 222.04 591.16 C 208.68 591.05 195.31 591.44 181.96 590.97 C 181.67 581.35 181.72 571.71 181.92 562.09 Z" />
<path fill="#feffff" d=" M 418.35 562.13 C 441.84 561.73 465.35 562.00 488.84 562.04 C 488.89 571.70 488.97 581.36 488.83 591.01 C 476.57 591.43 464.31 591.01 452.05 591.18 C 440.81 591.00 429.56 591.47 418.33 590.90 C 418.36 581.31 418.30 571.72 418.35 562.13 Z" />
<path fill="#feffff" d=" M 515.17 562.01 C 539.05 561.98 562.94 561.86 586.83 562.05 C 586.82 567.30 587.34 572.60 586.62 577.82 C 585.31 582.38 582.71 586.43 580.70 590.70 C 558.85 590.88 537.00 590.72 515.14 590.77 C 515.14 581.18 514.99 571.59 515.17 562.01 Z" />
<path fill="#feffff" d=" M 492.12 592.32 C 505.76 591.85 519.35 593.44 532.99 593.01 C 553.66 592.74 574.35 593.64 594.99 592.34 C 600.92 592.24 606.85 592.33 612.78 592.35 C 612.85 594.89 612.94 597.44 613.02 600.00 L 491.62 600.00 C 491.78 597.43 491.95 594.87 492.12 592.32 Z" />
</svg>
